/* XPM */
static char *result[] = {
/* columns rows colors chars-per-pixel */
"64 64 183 2 ",
"   c #1C0D0F",
".  c #191113",
"X  c #13131C",
"o  c #1D161A",
"O  c #16191D",
"+  c #1E1A1C",
"@  c #281305",
"#  c #22140E",
"$  c #2B140F",
"%  c #2C190F",
"&  c #331300",
"*  c #391404",
"=  c #3A1800",
"-  c #231615",
";  c #281515",
":  c #271B14",
">  c #2C1B15",
",  c #20141A",
"<  c #241B1C",
"1  c #291B1E",
"2  c #301D17",
"3  c #33211D",
"4  c #363019",
"5  c #0E1B2E",
"6  c #151120",
"7  c #1C1722",
"8  c #151926",
"9  c #1B1B25",
"0  c #15152A",
"q  c #1A1529",
"w  c #141B2B",
"e  c #1B1B2C",
"r  c #111D32",
"t  c #261724",
"y  c #231B23",
"u  c #2B1B22",
"i  c #231B2B",
"p  c #1E2323",
"a  c #172029",
"s  c #1E212C",
"d  c #122232",
"f  c #1A2431",
"g  c #212126",
"h  c #2A2726",
"j  c #23222C",
"k  c #342427",
"l  c #2D3626",
"z  c #25302C",
"x  c #2D3A2B",
"c  c #353A26",
"v  c #202332",
"b  c #2D3833",
"n  c #3F4C2A",
"m  c #785F58",
"M  c #7A614D",
"N  c #766359",
"B  c #7B635A",
"V  c #6F666B",
"C  c #7A6562",
"Z  c #925E37",
"A  c #86622E",
"S  c #866439",
"D  c #8C633B",
"F  c #98653D",
"G  c #865D45",
"H  c #856243",
"J  c #8A6445",
"K  c #85624C",
"L  c #8A684D",
"P  c #956345",
"I  c #846556",
"U  c #8C6554",
"Y  c #85645B",
"T  c #85695E",
"R  c #A37B48",
"E  c #AE7C4E",
"W  c #B27D4E",
"Q  c #A37D56",
"!  c #AA7F56",
"~  c #B27D54",
"^  c #B27D5D",
"/  c #846862",
"(  c #826F73",
")  c #A37C65",
"_  c #6B8262",
"`  c #679175",
"'  c #79A863",
"]  c #A89722",
"[  c #A89826",
"{  c #A8972B",
"}  c #A9982B",
"|  c #A89730",
" . c #C9B527",
".. c #C9B529",
"X. c #D7C227",
"o. c #DEC827",
"O. c #D7C228",
"+. c #DBC72B",
"@. c #C4C43E",
"#. c #D5C934",
"$. c #DBC933",
"%. c #D0C53D",
"&. c #E3CC27",
"*. c #E3CD28",
"=. c #E4CE34",
"-. c #E5CF3B",
";. c #9F865E",
":. c #B3864E",
">. c #A48452",
",. c #AC8155",
"<. c #A3835C",
"1. c #AE845B",
"2. c #A38D5C",
"3. c #AC8A5D",
"4. c #B28354",
"5. c #B98455",
"6. c #B3855B",
"7. c #BA855C",
"8. c #B48A5D",
"9. c #BA8A5A",
"0. c #9BB94E",
"q. c #B9BC4C",
"w. c #BFBA5B",
"e. c #9F8563",
"r. c #9E826B",
"t. c #9C896B",
"y. c #9B8675",
"u. c #9B8874",
"i. c #9C847A",
"p. c #A38363",
"a. c #AC8462",
"s. c #AA8D64",
"d. c #A4846B",
"f. c #AA8669",
"g. c #AC886D",
"h. c #B38562",
"j. c #B38B65",
"k. c #BB8B63",
"l. c #B2906A",
"z. c #A78372",
"x. c #A58971",
"c. c #A88977",
"v. c #AA8D7A",
"b. c #B38271",
"n. c #C0BB5E",
"m. c #C9A87F",
"M. c #D5AC7C",
"N. c #D8AF79",
"B. c #DFB877",
"V. c #DAB279",
"C. c #D9B779",
"Z. c #E5CF40",
"A. c #E5D045",
"S. c #E6D04B",
"D. c #E6D151",
"F. c #E7D35C",
"G. c #E7D463",
"H. c #E8D467",
"J. c #E7D46A",
"K. c #E8D468",
"L. c #9F8D83",
"P. c #A58F82",
"I. c #CCAA83",
"U. c #D3AE83",
"Y. c #DAAA86",
"T. c #CDB68A",
"R. c #D3B382",
"E. c #DAB383",
"W. c #D4B887",
"Q. c #DEB48B",
"!. c #CCA996",
"~. c #CEB692",
"^. c #C9B799",
"/. c #D7B592",
"(. c #D0B69F",
"). c #C6B5A3",
"_. c #EBDA87",
"`. c #EBDB8B",
"'. c #F1E6B5",
"]. c #F2E7BB",
"[. c #F2E8BC",
"{. c #FCF9EE",
"}. c #FEFDFC",
/* pixels */
"0.0.0.w.w.w.w.w.w.0.0.0.0.0.0.0.0.0.0.0.w.w.0.0.0.0.0.0.0.0.0.0.0.0.0.w.w.w.w.w.w.0.0.0.0.0.0.0.0.0.0.0.w.w.0.0.0.0.0.0.0.0.0.0.",
"0.0.w.w.w.w.' ' w.w.w.0.0.0.0.0.0.0.0.0.0.0.0.0.0.0.0.0.0.0.0.0.0.0.w.w.w.w.' ' w.w.w.0.0.0.0.0.0.0.0.0.0.0.0.0.0.0.0.0.0.0.0.0.",
"0.' ' ' 0.' ' ' ' ' ' ' ' ' ' ' ' 0.0.0.0.0.0.0.0.0.0.0.0.0.0.0.0.' ' ' 0.' ' ' ' ' ' ' ' ' ' ' ' 0.0.0.0.0.0.0.0.0.0.0.0.0.0.' ",
"0.0.0.0.0.0.0.' ' ' ' ' ' ' ' ' ' ' ' ' 0.0.0.0.0.0.0.0.0.0.0.0.0.0.0.0.0.0.0.' ' ' ' ' ' ' ' ' ' ' ' ' 0.0.0.0.0.0.0.0.0.0.0.0.",
"` ` 0.0.0.w.0.' 0.0.0.' 0.' 0.0.0.0.0.0.0.0.0.0.0.0.0.` ` 0.0.` ` ` 0.0.0.w.0.' 0.0.0.' 0.' 0.0.0.0.0.0.0.0.0.0.0.0.0.` ` 0.0.` ",
"w.w.` 0.w.w.w.w.' 0.0.0.0.0.0.w.w.w.0.0.0.0.0.0.0.` ` w.` ` ` ` w.w.` 0.w.w.w.w.' 0.0.0.0.0.0.w.w.w.0.0.0.0.0.0.0.` ` w.` ` ` w.",
"w.w.w.w.w.w.w.w.0.0.0.w.w.w.w.w.w.0.0.0.` ` ` ` ` ` w.w.w.w.` w.w.w.w.w.w.w.w.w.0.0.0.w.w.w.w.w.w.0.0.0.` ` ` ` ` ` w.w.w.w.` w.",
"w.w.w.w.w.w.w.w.w.0.0.0.0.0.0.0.0.` ` ` w.w.` ` w.w.` w.w.w.w.w.w.w.w.w.w.w.w.w.w.0.0.0.0.0.0.0.0.` ` ` w.w.` ` w.w.` w.w.w.w.w.",
"0.0.0.w.w.' ' w.w.w.w.0.0.0.0.w.` ` w.w.w.w.w.w.w.w.w.w.' ' w.w.0.0.0.w.w.' ' w.w.w.w.0.0.0.0.w.` ` w.w.w.w.w.w.w.w.w.w.' ' w.w.",
"0.0.' ' ' ' ' 0.0.0.0.0.0.w.w.w.w.w.w.w.0.0.w.w.0.' ' ' ' ' ' 0.0.0.' ' ' ' ' 0.0.0.0.0.0.w.w.w.w.w.w.w.0.0.w.w.0.' ' ' ' ' ' 0.",
"0.' ' ' 0.' ' ' 0.0.0.0.w.w.0.0.w.w.0.0.0.0.0.w.0.' ' ' ' ' ' ' 0.' ' ' 0.' ' ' 0.0.0.0.w.w.0.0.w.w.0.0.0.0.0.w.0.' ' ' ' ' ' ' ",
"' ' ' ' 0.0.0.0.0.0.0.0.0.0.0.0.0.0.0.0.0.' ' ' ' ' 0.' ' ' ' ' ' ' ' ' 0.0.0.0.0.0.0.0.0.0.0.0.0.0.0.0.0.' ' ' ' ' 0.' ' ' ' ' ",
"' 0.0.' 0.0.0.0.0.0.0.0.' ' ' 0.0.0.0.0.0.0.0.0.' 0.0.0.0.0.0.' ' 0.0.' 0.0.0.0.0.0.0.0.' ' ' 0.0.0.0.0.0.0.0.0.' 0.0.0.0.0.0.0.",
"0.0.0.0.0.0.0.0.' ' ' ' ' ' ' 0.0.0.0.0.w.w.0.0.w.w.0.0.0.0.0.0.0.0.0.0.0.0.0.0.' ' ' ' ' ' ' 0.0.0.0.0.w.w.0.0.w.w.0.0.0.0.0.' ",
"' ' 0.' ' 0.0.' ' ' ' ' ' ' ' ' ' ' ' w.w.w.w.w.w.w.' ' 0.' ' ' ' ' 0.' ' 0.0.' ' ' ' ' ' ' ' ' ' ' ' w.w.w.w.w.w.w.' ' 0.' ' ' ",
"' ' ' ' ' ' ` ` ' ' ' ' ' ' ' ' 0.0.0.0.0.w.w.w.' ' 0.' ' ' ' ' ' ' ' ' ' ' ` ` ' ' ' ' ' ' ' ' 0.0.0.0.0.w.w.w.' ' 0.' ' ' ' ' ",
"' ' ' ` ` ` ` ` ` ` ` 0.` ` ` ' 0.0.w.w.w.w.w.0.0.0.0.' ' ' ' ' ' ' ' ` ` ` ` ` ` ` ` 0.` ` ` ' 0.0.w.w.w.w.w.0.0.0.0.' ' ' ' ' ",
"' ' ` ` ` w.w.` ` w.w.` w.w.` ` w.w.0.0.w.w.w.0.0.0.0.0.0.' ' ' ' ' ` ` ` w.w.` ` w.w.` w.w.` ` w.w.0.0.w.w.w.0.0.0.0.0.0.' ' ' ",
"' ` ` w.w.w.w.` w.w.w.w.w.w.w.w.w.0.0.0.0.0.w.w.n.0.0.0.0.0.0.' ' ` ` w.w.w.w.` w.w.w.w.w.w.w.w.w.0.0.0.0.0.w.w.w.0.0.0.0.0.0.w.",
"w.w.w.w.w.w.w.w.w.w.w.w.w.w.w.w.w.w.w.0.0.0.0.0.0.0.0.0.0.0.0.w.0.w.w.w.w.w.w.w.w.w.w.w.w.w.w.w.w.w.w.0.0.0.0.0.0.0.0.0.0.0.0.0.",
"0.0.0.w.w.0.0.w.0.0.0.w.0.0.w.w.w.w.w.0.w.w.w.0.0.0.0.0.0.0.0.0.8 w 0.w.w.0.0.w.0.0.0.w.0.0.w.w.w.w.w.0.w.w.w.0.0.0.0.0.0.0.0.0.",
"0.0.0.0.0.0.0.w.0.0.0.0.0.0.w.w.0.d 0 w n.8 8 0.8 8 0.0.0.0.# @ ! s.w 0 8 8 0.w.0.0.0.0.8 8 8 a 0.0.w.w.w.w.0.0.0.0.0.0.0.0.0.0.",
"w.w.0.0.0.0.0.0.0.0.0.0.0.0.0.0.b 9 u.a.p.2.;.y c.a.3.8 8 8 ^.M.C.C.R.- /.<.a.w 8 8 t.>.p.<.3., g 0.0.0.0.0.0.' ' ' ' 0.' ' 0.w.",
"w.w.w.w.w.' 0.' ' ' 0.0.0.0.0.0.0.8 > Y.R.I./.+ (.I.R.E.8.a ^.R.Q.W.~.u (.T.E.W.^.y ).Q.m.>.!.7 l 0.0.0.0.' ' ' ' ' ' ' ' ' w.w.",
"w.w.' ' ' 0.' 0.0.' ' 0.0.' ' 0.0.' < ) 3.1.,.+ z.h.,.h.7.e M 8.h.6.4.y d.Q.~ ,.8.i z.:.,.H c.l 0.' 0.' ' ' ' 0.0.0.' ' 0.' ' 0.",
"0.0.0.0.0.' 0.0.' ' 0.0.' ' ' ' ' ' @ a.:.W W 1 p.E.:.8.4.  p.5.,.9.j.X e.S ,.D 1.9 I k.4.F d.z ' ' ' ' 0.0.0.0.0.0.0.0.0.0.0.` ",
"0.` ` ` ' ' ' ' ' ' ' ' ' 0.0.0.p i ; ) G f.b.q i.a.8.l.j., r.a.3.6.b., f.,.,.U ) 3 v.J 6.~ z.e c 0.0.0.0.0.` ` 0.` ` 0.w.w.` ` ",
"` ` w.w.` w.' 0.' 0.0.' ' 0.0.0.0.0.e 1 9 g - v 0 < 1 + i f i t + 1 t r i < - X p w t q 9 , e f 0.0.0.0.` ` w.w.` w.` w.w.w.w.w.",
"` w.0.w.w.w.w.0.0.0.0.' ' ' ' ' ' ' e y q e 3 . e w q w e } { e w  ...[ { q w a 0 y t j 7 u i ' ' ' ` w.w.w.w.w.w.w.w.w.w.' ' w.",
"0.0.0.0.0.0.w.w.0.0.0.' w.w.w.w.w.n.X N / ; / m V a ......*.*.&.&.&.o. .....} r 9 C   ( N Y h n.w.w.0.0.0.w.' ' ' w.' ' ' ' ' ' ",
"' ' ' ' 0.' ' ' 0.0.0.0.0.0.0.0.0.0.8 3 G * U L T + ..o.*.&.&.-.&.*.&.O.&.o.} | y Y ; M H Y w 0.0.0.0.0.0.0.0.0.0.0.' ' ' ' ' ' ",
"' ' ' ' ' ' w.w.0.0.0.0.0.0.0.0.0.w.n.- a.G h.7.L 7 r +.*.*.=.F.F.&.D.J.&.o.X.{ M h.L >.a.Y f 0.0.w.w.w.0.0.0.0.0.0.' ' ' 0.0.' ",
"' 0.0.0.w.0.w.w.w.0.0.0.0.0.0.0.w.n.0.9 6.Z H 6.D o ..&.F.S._.'.`.Z.S.F.D.O.&.w L 5.h.>.^ B 9 0.n.n.0.w.w.w.0.0.0.0.0.0.0.0.0.0.",
"0.0.w.w.w.w.' ' w.w.w.0.0.0.0.0.0.0.9 s a.F d.! ! o X.&.S.S._.}.[.`.'.G.Z.&.X.{ p.:.a.j.6.# 9 0.0.0.0.0.0.0.0.0.0.0.0.0.0.0.0.0.",
"0.' ' ' 0.' ' ' ' ' ' ' ' ' ' ' ' 0.8 0 g.6.& M.4.k o.&.-.S.].}.[.[.}.].S.&.o.| f.B.) U.,.i 9 ' ' 0.0.0.0.0.0.0.0.0.0.0.0.0.0.' ",
"0.0.0.0.0.0.0.' ' ' ' ' ' ' ' ' ' ' ' 0 I 1.& C.~ 2 ..*.*.D.].{.}.{.}.J.&.o.o.] <.B.= U.! q ' x _ ' ' ' 0.0.0.0.0.0.0.0.0.0.0.0.",
"` ` 0.0.0.w.0.' 0.0.0.' 0.' 0.0.0.0.0.9 > f.S N.E y.8 o.&.S.].}.}.}.[.S.&.o.o.. 1.V.H 6.x.9 w 0.0.0.0.0.0.0.0.0.0.0.0.` ` 0.0.` ",
"w.w.` 0.w.w.w.w.' 0.0.0.0.0.0.w.w.w.0.0.y g.A N.5.t.O o.&.J.H.J.`.`.F.=.&.X.9 : 1.4.D 4.$ O 0.w.w.w.0.0.0.0.0.0.0.` ` w.` ` ` w.",
"w.w.w.w.w.w.w.w.0.0.0.w.w.w.w.w.w.0.0.0.9 g.R 5.6.x.j O.&.D.-.A.K.H.Z.*.&.O.e : a.E 8.1.u w.w.w.w.0.0.0.` ` ` ` ` ` w.w.w.w.` w.",
"w.w.w.w.w.w.w.w.w.0.0.0.0.0.0.0.0.` ` ` w.g.4.5.P y.e O.*.D.Z.=.-.-.=.&.&.O.[ - f.~ 1.Q 9 0.0.0.0.` ` ` w.w.` ` w.w.` w.w.w.w.w.",
"0.0.0.w.w.' ' w.w.w.w.0.0.0.0.w.` ` w.w.w.3 <.5.P f.+ } ] *.&.=.-.=.D.&.&...[ % d.6.D d.h n 0.w.` ` w.w.w.w.w.w.w.w.w.w.' ' w.w.",
"0.0.' ' ' ' ' 0.0.0.0.0.0.w.w.w.w.w.w.w.0.+ z.h.K a.g 5 y O.X...#.$.$.%.@.q.7 L.c.p.J i.n w.w.w.w.w.w.w.0.0.w.w.0.' ' ' ' ' ' 0.",
"0.' ' ' 0.' ' ' 0.0.0.0.w.w.0.0.w.w.0.0.n X c P.- r.6 n q.%.' q.$.%.q.q.@.z n 4 0.4 C 4 w.w.0.0.w.w.0.0.0.0.0.w.0.' ' ' ' ' ' ' ",
"' ' ' ' 0.0.0.0.0.0.0.0.0.0.0.0.0.0.0.0.0.O ' h ' ' 0.' ' ' ' ' ' ' ' ' 0.z 0.0.0.0.0.0.0.0.0.0.0.0.0.0.0.' ' ' ' ' 0.' ' ' ' ' ",
"' 0.0.' 0.0.0.0.0.0.0.0.' ' ' 0.0.0.0.0.0.0.0.0.' 0.0.0.0.0.0.' ' 0.0.' 0.0.0.0.0.0.0.0.' ' ' 0.0.0.0.0.0.0.0.0.' 0.0.0.0.0.0.0.",
"0.0.0.0.0.0.0.0.' ' ' ' ' ' ' 0.0.0.0.0.w.w.0.0.w.w.0.0.0.0.0.0.0.0.0.0.0.0.0.0.' ' ' ' ' ' ' 0.0.0.0.0.w.w.0.0.w.w.0.0.0.0.0.' ",
"' ' 0.' ' 0.0.' ' ' ' ' ' ' ' ' ' ' ' w.w.w.w.w.w.w.' ' 0.' ' ' ' ' 0.' ' 0.0.' ' ' ' ' ' ' ' ' ' ' ' w.w.w.w.w.w.w.' ' 0.' ' ' ",
"' ' ' ' ' ' ` ` ' ' ' ' ' ' ' ' 0.0.0.0.0.w.w.w.' ' 0.' ' ' ' ' ' ' ' ' ' ' ` ` ' ' ' ' ' ' ' ' 0.0.0.0.0.w.w.w.' ' 0.' ' ' ' ' ",
"' ' ' ` ` ` ` ` ` ` ` 0.` ` ` ' 0.0.w.w.w.w.w.0.0.0.0.' ' ' ' ' ' ' ' ` ` ` ` ` ` ` ` 0.` ` ` ' 0.0.w.w.w.w.w.0.0.0.0.' ' ' ' ' ",
"' ' ` ` ` w.w.` ` w.w.` w.w.` ` w.w.0.0.w.w.w.0.0.0.0.0.0.' ' ' ' ' ` ` ` w.w.` ` w.w.` w.w.` ` w.w.0.0.w.w.w.0.0.0.0.0.0.' ' ' ",
"' ` ` w.w.w.w.` w.w.w.w.w.w.w.w.w.0.0.0.0.0.w.w.w.0.0.0.0.0.0.' ' ` ` w.w.w.w.` w.w.w.w.w.w.w.w.w.0.0.0.0.0.w.w.w.0.0.0.0.0.0.w.",
"w.w.w.w.w.w.w.w.w.w.w.w.w.w.w.w.w.w.w.0.0.0.0.0.0.0.0.0.0.0.0.w.0.w.w.w.w.w.w.w.w.w.w.w.w.w.w.w.w.w.w.0.0.0.0.0.0.0.0.0.0.0.0.0.",
"0.0.0.w.w.0.0.w.0.0.0.w.0.0.w.w.w.w.w.0.w.w.w.0.0.0.0.0.0.0.0.0.0.0.0.w.w.0.0.w.0.0.0.w.0.0.w.w.w.w.w.0.w.w.w.0.0.0.0.0.0.0.0.0.",
"0.0.0.0.0.0.0.w.0.0.0.0.0.0.w.w.0.0.w.w.w.w.0.0.0.0.0.0.0.0.0.0.0.0.0.0.0.0.0.w.0.0.0.0.0.0.w.w.0.0.w.w.w.w.0.0.0.0.0.0.0.0.0.0.",
"w.w.0.0.0.0.0.0.0.0.0.0.0.0.0.0.0.0.0.0.0.0.0.' ' ' ' 0.' ' 0.0.0.w.0.0.0.0.0.0.0.0.0.0.0.0.0.0.0.0.0.0.0.0.0.' ' ' ' 0.' ' 0.w.",
"w.w.w.w.w.' 0.' ' ' 0.0.0.0.0.0.0.0.0.0.0.' ' ' ' ' ' ' ' ' w.w.w.w.w.w.w.' 0.' ' ' 0.0.0.0.0.0.0.0.0.0.0.' ' ' ' ' ' ' ' ' w.w.",
"w.w.' ' ' 0.' 0.0.' ' 0.0.' ' 0.0.' 0.' ' ' ' 0.0.0.' ' 0.' ' ' ' w.' ' ' 0.' 0.0.' ' 0.0.' ' 0.0.' 0.' ' ' ' 0.0.0.' ' 0.' ' 0.",
"0.0.0.0.0.' 0.0.' ' 0.0.' ' ' ' ' ' ' ' 0.0.0.0.0.0.0.0.0.0.0.0.0.0.0.0.0.' 0.0.' ' 0.0.' ' ' ' ' ' ' ' 0.0.0.0.0.0.0.0.0.0.0.` ",
"0.` ` ` ' ' ' ' ' ' ' ' ' 0.0.0.0.0.0.0.0.0.` ` 0.` ` 0.w.w.` ` ` ` ` ` ' ' ' ' ' ' ' ' ' 0.0.0.0.0.0.0.0.0.` ` 0.` ` 0.w.w.` ` ",
"` ` w.w.` w.' 0.' 0.0.' ' 0.0.0.0.0.0.0.` ` w.w.` w.` w.w.w.w.w.` ` w.w.` w.' 0.' 0.0.' ' 0.0.0.0.0.0.0.` ` w.w.` w.` w.w.w.w.w.",
"` w.0.w.w.w.w.0.0.0.0.' ' ' ' ' ' ' ` w.w.w.w.w.w.w.w.w.w.' ' w.w.w.0.w.w.w.w.0.0.0.0.' ' ' ' ' ' ' ` w.w.w.w.w.w.w.w.w.w.' ' w.",
"0.0.0.0.0.0.w.w.0.0.0.' w.w.w.w.w.w.0.0.0.w.' ' ' w.' ' ' ' ' ' ' 0.0.0.0.0.w.w.0.0.0.' w.w.w.w.w.w.0.0.0.w.' ' ' w.' ' ' ' ' ' ",
"' ' ' ' 0.' ' ' 0.0.0.0.0.0.0.0.0.0.0.0.0.0.0.0.0.0.' ' ' ' ' ' ' ' ' ' 0.' ' ' 0.0.0.0.0.0.0.0.0.0.0.0.0.0.0.0.0.0.' ' ' ' ' ' ",
"' ' 0.0.0.w.w.w.0.0.0.0.0.0.w.w.w.w.w.w.w.0.0.' ' ' ' ' 0.0.0.' ' ' 0.0.0.w.w.w.0.0.0.0.0.0.w.w.w.w.w.w.w.0.0.' ' ' ' ' 0.0.0.' "
};
