/* XPM */
static char *result[] = {
/* columns rows colors chars-per-pixel */
"64 64 218 2 ",
"   c #1C1804",
".  c #1D180D",
"X  c #140F19",
"o  c #0F1A19",
"O  c #191A13",
"+  c #1C1B13",
"@  c #15161E",
"#  c #1A151C",
"$  c #141A1C",
"%  c #1B1B1C",
"&  c #271904",
"*  c #24150D",
"=  c #221B0A",
"-  c #291614",
";  c #211B16",
":  c #211519",
">  c #221B1C",
",  c #301D1F",
"<  c #1E211C",
"1  c #272409",
"2  c #272318",
"3  c #32211B",
"4  c #140E22",
"5  c #081A28",
"6  c #141524",
"7  c #1C1623",
"8  c #151B25",
"9  c #1B1C24",
"0  c #17162A",
"q  c #141B2C",
"w  c #1A1C2B",
"e  c #041C32",
"r  c #141B33",
"t  c #151937",
"y  c #1A1D32",
"u  c #191E3A",
"i  c #261926",
"p  c #231C24",
"a  c #221E2B",
"s  c #231933",
"d  c #01242C",
"f  c #08232B",
"g  c #1C2225",
"h  c #1A2B27",
"j  c #13242D",
"k  c #1C232B",
"l  c #032533",
"z  c #092636",
"x  c #122233",
"c  c #1A2132",
"v  c #17233A",
"b  c #222324",
"n  c #23232B",
"m  c #282729",
"M  c #2C332B",
"N  c #2B372B",
"B  c #313A25",
"V  c #333D2C",
"C  c #252535",
"Z  c #175D65",
"A  c #3A4C67",
"S  c #3B4C6C",
"D  c #27556F",
"F  c #35566E",
"G  c #3B536D",
"H  c #3D4E71",
"J  c #2B5876",
"K  c #355675",
"L  c #3B5372",
"P  c #494E54",
"I  c #424D6B",
"U  c #4A4D6E",
"Y  c #455166",
"T  c #404C76",
"R  c #435373",
"E  c #475477",
"W  c #4F7C75",
"Q  c #5A7D78",
"!  c #6C7978",
"~  c #957B5A",
"^  c #8C7C65",
"/  c #977D66",
"(  c #8B7A74",
")  c #8A7C7C",
"_  c #957C75",
"`  c #A27F61",
"'  c #4D8379",
"]  c #5A837F",
"[  c #679175",
"{  c #79A863",
"}  c #9BB94E",
"|  c #9DBA53",
" . c #9FBC5A",
".. c #BFBA5B",
"X. c #988369",
"o. c #898078",
"O. c #968276",
"+. c #A08363",
"@. c #D2AE7C",
"#. c #CAB67E",
"$. c #D3B67C",
"%. c #3C7C91",
"&. c #4A7C8B",
"*. c #557B88",
"=. c #487D96",
"-. c #587994",
";. c #64788B",
":. c #5B7DA1",
">. c #817F80",
",. c #34868D",
"<. c #378695",
"1. c #3C8494",
"2. c #3D8DA4",
"3. c #45828D",
"4. c #4B8588",
"5. c #4C868C",
"6. c #568488",
"7. c #438293",
"8. c #478A97",
"9. c #558499",
"0. c #4E909E",
"q. c #718293",
"w. c #67AC9A",
"e. c #4B89A2",
"r. c #5286A2",
"t. c #53ACA6",
"y. c #5EACAD",
"u. c #57B5AE",
"i. c #58B3B3",
"p. c #63ADAC",
"a. c #69A9A8",
"s. c #72A9A8",
"d. c #63B3AE",
"f. c #70B2AE",
"g. c #62ACB2",
"h. c #6DAFBB",
"j. c #66B4B6",
"k. c #87808C",
"l. c #98B197",
"z. c #BAAF99",
"x. c #BCB59B",
"c. c #9DB0A2",
"v. c #AEBBA9",
"b. c #BDB9A8",
"n. c #CBAE86",
"m. c #D6AF84",
"M. c #C7B786",
"N. c #CEB485",
"B. c #CCB48C",
"V. c #CEBA8A",
"C. c #D4B483",
"Z. c #DAB583",
"A. c #D4BB85",
"S. c #D3B58C",
"D. c #D8B48E",
"F. c #D7B988",
"G. c #D9B989",
"H. c #CCB695",
"J. c #C4B49A",
"K. c #CBB59B",
"L. c #C5BB9C",
"P. c #CBBB9B",
"I. c #D3B593",
"U. c #D5BA94",
"Y. c #C3AEAD",
"T. c #C9B6A5",
"R. c #C4BCA4",
"E. c #C5B4A8",
"W. c #D0B9A5",
"Q. c #C7BDB3",
"!. c #D2B9B4",
"~. c #B8C398",
"^. c #BBC3AF",
"/. c #B7C4B0",
"(. c #D8C18D",
"). c #EADA9C",
"_. c #C8C2A7",
"`. c #C6C9B4",
"'. c #DED7BA",
"]. c #ECDCAA",
"[. c #F2DEA9",
"{. c #EDDDB4",
"}. c #E6DCB8",
"|. c #F1DDB2",
" X c #F7DCBA",
".X c #E8E5A8",
"XX c #ECE3AD",
"oX c #F1E2AA",
"OX c #F7E6AB",
"+X c #E8E4B9",
"@X c #F5E4B2",
"#X c #F4E4B9",
"$X c #CED1CD",
"%X c #D6D9C8",
"&X c #D4D4D4",
"*X c #D7D9D6",
"=X c #D9D9D6",
"-X c #D4D5DA",
";X c #D9D7D9",
":X c #D7D8DB",
">X c #DADBDA",
",X c #E6DEC7",
"<X c #E4DCCB",
"1X c #E6DADC",
"2X c #DFE3C8",
"3X c #E7E4C5",
"4X c #E9E3CC",
"5X c #F4E4C2",
"6X c #E4E5D3",
"7X c #F2F4D2",
"8X c #FFFDD6",
"9X c #FEFDDD",
"0X c #CED7E8",
"qX c #DADAE3",
"wX c #FFFEE1",
"eX c #FEFDEB",
"rX c #FFFEF2",
"tX c #FDFFFD",
/* pixels */
"} } } ............} } } } } } } } } } } ....} } } } } } } } } } } } } ............} } } } } } } } } } } ....} } } } } } } } } } ",
"} } ........{ { ......} } } } } } } } } } } } } } } } } } } } } } } ........{ { ......} } } } } } } } } } } } } } } } } } } } } ",
"} { { { } { { { { { { { { { { { { } } } } } } } } } } } } } } } } { { { } { { { { { { { { { { { { } } } } } } } } } } } } } } { ",
"} } } } } } } { { { { { { { { { { { { { } } } } } } } } } } } } } } } } } } } { { { { { { { { { { { { { } } } } } } } } } } } } ",
"[ [ } } } ..} { } } } { } { } } } } } } } } } } } } } [ [ } } [ [ [ } } } ..} { } } } { } { } } } } } } } } } } } } } [ [ } } [ ",
"....[ } ........{ } } } } } } ......} } } } } } } [ [ ..[ [ [ [ ....[ } ........{ } } } } } } ......} } } } } } } [ [ ..[ [ [ ..",
"................} } } ............} } } [ [ [ [ [ [ ........[ ..................} } } ............} } } [ [ [ [ [ [ ........[ ..",
"..................} } } } } } } } [ [ [ ....[ [ ....[ ............................} } } } } } } } [ [ [ ....[ [ ....[ ..........",
"} } } ....{ { ........} } } } ..[ [ ..........k ;.;.q g { { ....} } } ....{ { ........} } } } ..[ [ ....................{ { ....",
"} } { { { { { } } } } } } ..............} V r l 7.g.p.a.d 5 h } } } { { { { { } } } } } } ..............} } ....} { { { { { { } ",
"} { { { } { { { } } } } ....} } ....} } V r &.8.,.,.j.0.y.d.l j } { { { } { { { } } } } ....} } ....} } } } } ..} { { { { { { { ",
"{ { { { } } } } } } } } } } } } } } } B 5 e 8.%.u.t.i.g.j.i.d.s.h { { { } } } } } } } } } } } } } } } } } { { { { { } { { { { { ",
"{ } } { } } } } } } } } { { { } } } } 7 z 7.1.1.i.d.u.u.1.d.u.y.4.M } { } } } } } } } } { { { } } } } } } } } } { } } } } } } } ",
"} } } } } } } } { { { { { { { } } } } r K 8.7.e l j d p.u.5.j.t.d.5 } } } } } } { { { { { { { } } } } } ....} } ....} } } } } { ",
"{ { } { { } } { { { { { { { { { { { { w -.=.%.L r r 0 5 p.u.5.5.y.W x { { } } { { { { { { { { { { { { ..............{ { } { { { ",
"{ { { { { { [ [ { { { { { { { { } } | y R J J S A I t 6 d y.d.l p.j.d { { { [ [ { { { { { { { { } } } } } ......{ { } { { { { { ",
"{ { { [ [ [ [ [ [ [ [ } [ [ [ { } } ..9 q R -.S T E 5 y x l g.*.l 9.z [ [ [ [ [ [ [ [ } [ [ [ { } } ..........} } } } { { { { { ",
"{ { [ [ [ ....[ [ ....[ ....[ [ ....} } 8 r t I A r 6 } w r Z 9.&.9.x [ [ ....[ [ ....[ ....[ [ ....} } ......} } } } } } { { { ",
"{ [ [ ........[ ..................} } } } } w q q n } } } u 9.5 z K c ........[ ..................} } } } } ......} } } } } } ..",
"......................................} } } } } } } } } M w 6.R -.z ..................................} } } } } } } } } } } } } ",
"} } } ....} } ..} } } ..} } ..........} ......} } b % > 7 u K t Y 9 2 k ..} } ..} } } ..} } ..........} g 8 ..} } } } } } } } } ",
"} } } } } } } ..} } } } } } ....} } ........} } 9 % `.Y.P Y q 8 n rXrXtXc } } ..} } } } } } ....} } ..g g g } } } } } } } } } } ",
"....} } } } } } } } } } } } } } } } } } } | } g 9 m O !.wXwXwXeXrXz.L.= ; % } } } } } } } } } } } } g g C.X } { { { { } { { } ..",
"..........{ } { { { } } } } } } } } } } } { { 8 p ( P.|.+X#X}.{.+X3X5X|.K.p } { { { } } } } } } } 1 g C.C.o { { { { { { { { ....",
"....{ { { } { } } { { } } { { } } { } { { { { y ) / N.N.].+X9X9XrXrXrXeX|.R.V } } { { } } { { } g . C.7X%Xg { } } } { { } { { } ",
"} } } } } { } } { { } } { { { { { { { { } } y 9 _ ~ S.N.XXOX@X+X}.3Xi K.@XXX9 } { { } } { { { { g XX7X7X3XM } } } } } } } } } [ ",
"} [ [ [ { { { { { { { { { } } } } } } } | } @ a _ +.@.C.N.oXoXOX|.+Xp 2 H.].b N { { { { { } } M `.7X8XM.6XB [ [ } [ [ } ....[ [ ",
"[ [ ....[ ..{ } { } } { { } } } } } } } [ [ 8 ( / B.A.A.N.N.oXXXeXtXk 0 _.XX  < { } } { { } } 7 eX5XM.#X2 [ ....[ ..[ ..........",
"[ ..} ........} } } } { { { { C C { [ ......8 ^ / I.G.G.D.(.(.].}.3Xg y J.I.eX0 } } } { { { N 1 +XN.C.T.> ................{ { ..",
"} } } } } } ....} } } { ......w ^.i } } } $ u ( / I.Z.$.G.G.V.@X,XeX0 C ; T.1Xq } } } { ....g 3XXXN.B.# } ..{ { { ..{ { { { { { ",
"{ { { { } { { { } } } } } } } q . L., p } k y s - / ~ M.& 3 2 $ # 7 n r k # # 5 } } } } } V   '.M.N.T.@ } } } } } } { { { { { { ",
"{ { { { { { ....} } } } } } } c q * P.; 6 | k # _ ` G.n. X,X+ 9 8 y 0 u q % 4Xg k } } } } g +X; I.n.2 ..} } } } } } { { { } } { ",
"{ } } } ..} ......} } } } } } x =.z $ P.- a w $ ( K.B.I.S.B.@X}.,X<Xk t a P..X<Xk } } } N 1  X= I.P.+ ......} } } } } } } } } } ",
"} } ........{ { ......} } } } l =.3.3.o / +.- 0 i _ X.B.$.A.$.OX@XwXtXw * J.8X'.< ....} 8 #X_ & P.. } } } } } } } } } } } } } } ",
"} { { { } { { { { { { { { { { l &.8.%.Q b.R.Q._.P.1   3 I.D.A.[.].}.tX$ J.|.5XR.g l h { . 4X( B.E.n } } } } } } } } } } } } } { ",
"} } } } } } } { { { { { { { { l 1.2.<.W P.M.- > : }.4Xp W.$.@.n.#X.X2X+ M.OX}.k d s.9.6 K.m & J.> { { { } } } } } } } } } } } } ",
"[ [ } } } ..} { } } } { } { } z 1.1.1.6.L.M.C.S.:   x.p > J.B.N.[..X9XwX].@Xb.j 9.d ;.: J.; ^ Q.9 } } } } } } } } } } [ [ } } [ ",
"....[ } ........{ } } } } } } j 4.8.<.w.+X#.C.A.z.& _.p q 8 @ E.|.@X9X9XXX_.8 j h.5.x b.+ ; ( a ....} } } } } } } [ [ ..[ [ [ ..",
"................} } } ........o 3.%.8.a.+X(.S.C.H.* E.w q 5 c 9 : _.<X4X6Xu S 5 5.0.W f 6 k.) y x } } } [ [ [ [ [ [ ........[ ..",
"..................} } } } } } < b.[ 3.,.3X#. XZ.S.& b.q A H S u q w a 2 g S G E r f r.J E u w Y -.x [ [ ....[ [ ....[ ..........",
"} } } ....{ { ........} } } } + n.D.+Xa.~.$.$.Z.I./ L.8 K :.J T L t t r L :.G v O >.s t E R A q q w ....................{ { ....",
"} } { { { { { } } } } } } ....9 I.M.@X.X] /.B.G.U.~ T.7 F e.7.%.K H I I K :.G q O./ K., 6 e I U c ......} } ....} { { { { { { } ",
"} { { { } { { { } } } } ....} # H.C.).OXs.f.*.v.R.O.!.6 *.7.1.2.=.7.D K -.-.x q O.S.$.#.^ 6 u r m ..} } } } } ..} { { { { { { { ",
"{ { { { } } } } } } } } } } } M & S.@.A.' i.<.8.Q 2 Y.0 H K =.8.1.%.e.9.*.x q 4 i X.N.V.E.9 } } } } } } } { { { { { } { { { { { ",
"{ } } { } } } } } } } } { { { } g W.F.N.^.8.<.<.-.g o.8 L I I G G F L e x 8 } u t 0 > : i 7 { } } } } } } } } } { } } } } } } } ",
"} } } } } } } } { { { { { { { } } s J.m.H.5.1.%.;.>.a w v u 6 c 0 t u q b } } q I u 6 7 { { { | } } } } ....} } ....} } } } } { ",
"{ { } { { } } { { { { { { { { { { { 4 W.B.' <.-.c m 4 q q 8 -XqX0Xr g 8 { } } k c 8 { { { { { { { { { ..............{ { } { { { ",
"{ { { { { { [ [ { { { { { { { { } } | % H.6.-.j w # ;X-Xq 8 -X&Xq y w :X*Xl.l.[ { { { { { { { { } } } } } ......{ { } { { { { { ",
"{ { { [ [ [ [ [ [ [ [ } [ [ [ { } } ....% ! j q.> -X-Xw 0 6 -X>X8 8 7 &X:X*X*X*Xc.[ [ } [ [ [ { } } ..........} } } } { { { { { ",
"{ { [ [ [ ....[ [ ....[ ....[ [ ....} } ..6 7 8 &X&X:X-X-X$XqX-XqX-XqX-X-X*X>X>X>X....[ ....[ [ ....} } ......} } } } } } { { { ",
"{ [ [ ........[ ..................} } } | } 9 &X=X=X:X;X;X&X>X=X&X&X*X*X>X*X&X*X&X................} } } } } ......} } } } } } ..",
"......................................} } } } ~.>X>X;X:X>X&X=X=X&X&X&X=X&X=X&X&X......................} } } } } } } } } } } } } ",
"} } } ....} } ..} } } ..} } ..........} ......} } `.`.%X>X:X=X:X:X>X:X:X&X'.} ..| } } ..} } ..........} ......} } } } } } } } } ",
"} } } } } } } ..} } } } } } ....} } ........} } } } } }  .|  . . . .| } } } } ..} } } } } } ....} } ........} } } } } } } } } } ",
"....} } } } } } } } } } } } } } } } } } } } } { { { { } { { } } } ..} } } } } } } } } } } } } } } } } } } } } { { { { } { { } ..",
"..........{ } { { { } } } } } } } } } } } { { { { { { { { { ..............{ } { { { } } } } } } } } } } } { { { { { { { { { ....",
"....{ { { } { } } { { } } { { } } { } { { { { } } } { { } { { { { ..{ { { } { } } { { } } { { } } { } { { { { } } } { { } { { } ",
"} } } } } { } } { { } } { { { { { { { { } } } } } } } } } } } } } } } } } { } } { { } } { { { { { { { { } } } } } } } } } } } [ ",
"} [ [ [ { { { { { { { { { } } } } } } } } } [ [ } [ [ } ....[ [ [ [ [ [ { { { { { { { { { } } } } } } } } } [ [ } [ [ } ....[ [ ",
"[ [ ....[ ..{ } { } } { { } } } } } } } [ [ ....[ ..[ ..........[ [ ....[ ..{ } { } } { { } } } } } } } [ [ ....[ ..[ ..........",
"[ ..} ........} } } } { { { { { { { [ ....................{ { ......} ........} } } } { { { { { { { [ ....................{ { ..",
"} } } } } } ....} } } { ............} } } ..{ { { ..{ { { { { { { } } } } } ....} } } { ............} } } ..{ { { ..{ { { { { { ",
"{ { { { } { { { } } } } } } } } } } } } } } } } } } { { { { { { { { { { } { { { } } } } } } } } } } } } } } } } } } { { { { { { ",
"{ { } } } ......} } } } } } ..............} } { { { { { } } } { { { } } } ......} } } } } } ..............} } { { { { { } } } { "
};
