/* XPM */
static char *result[] = {
/* columns rows colors chars-per-pixel */
"64 64 221 2 ",
"   c #09191C",
".  c #11191C",
"X  c #122516",
"o  c #0D1525",
"O  c #021C25",
"+  c #0D1C24",
"@  c #061E29",
"#  c #0C1C2B",
"$  c #131C26",
"%  c #191A26",
"&  c #151528",
"*  c #131E2C",
"=  c #1A1D2C",
"-  c #151E32",
";  c #181A31",
":  c #201B2F",
">  c #032125",
",  c #0B2125",
"<  c #03242B",
"1  c #0C232B",
"2  c #0F282D",
"3  c #122224",
"4  c #182724",
"5  c #14222B",
"6  c #1A222C",
"7  c #042632",
"8  c #0C2431",
"9  c #122333",
"0  c #1B2433",
"q  c #172834",
"w  c #394B34",
"e  c #3D6563",
"r  c #3D6A66",
"t  c #3D6C6C",
"y  c #3D716E",
"u  c #3C6C70",
"i  c #3E7372",
"p  c #495E5F",
"a  c #4E6A5E",
"s  c #56685E",
"d  c #4A5C63",
"f  c #515F65",
"g  c #545F69",
"h  c #446464",
"j  c #4B6464",
"k  c #446A64",
"l  c #4B6A65",
"z  c #45666A",
"x  c #4C666B",
"c  c #446C6B",
"v  c #4C6B6C",
"b  c #526365",
"n  c #526A65",
"m  c #53646B",
"M  c #5A656D",
"N  c #536B6C",
"B  c #596A6A",
"V  c #43726D",
"C  c #4B726D",
"Z  c #51726D",
"A  c #5C726D",
"S  c #446D71",
"D  c #4C6D72",
"F  c #496B74",
"G  c #566672",
"H  c #596772",
"J  c #536C72",
"K  c #5A6C73",
"L  c #447373",
"P  c #4B7373",
"I  c #477878",
"U  c #537273",
"Y  c #527975",
"T  c #567378",
"R  c #657969",
"E  c #707A63",
"W  c #626E78",
"Q  c #6E8870",
"!  c #679175",
"~  c #79A863",
"^  c #7EAA69",
"/  c #9BB94E",
"(  c #9CB951",
")  c #9FBC5B",
"_  c #BFBA5B",
"`  c #8C9266",
"'  c #86AF74",
"]  c #A3BE63",
"[  c #C0BB5F",
"{  c #C1BC63",
"}  c #A9C272",
"|  c #5C9594",
" . c #5E9A96",
".. c #5C9698",
"X. c #5D9A99",
"o. c #688C8C",
"O. c #66978E",
"+. c #6B938F",
"@. c #6D9B8C",
"#. c #75978A",
"$. c #729B8C",
"%. c #738D97",
"&. c #7D8F9B",
"*. c #639594",
"=. c #6B9694",
"-. c #649A95",
";. c #6B9B95",
":. c #64979A",
">. c #6C969A",
",. c #659D9C",
"<. c #6A9C9C",
"1. c #739594",
"2. c #729C94",
"3. c #71959C",
"4. c #7A959C",
"5. c #729B9B",
"6. c #799A98",
"7. c #5EA29C",
"8. c #6AA195",
"9. c #65A19D",
"0. c #6AA19D",
"q. c #76A196",
"w. c #73A29D",
"e. c #79A09F",
"r. c #659EA1",
"t. c #6B9EA1",
"y. c #669FAC",
"u. c #7799A2",
"i. c #739CA2",
"p. c #5EA6A5",
"a. c #65A1A2",
"s. c #6BA2A2",
"d. c #6EA4AA",
"f. c #69A8A8",
"g. c #72A3A3",
"h. c #78A3A3",
"j. c #7BA4A8",
"k. c #7FB6B9",
"l. c #7FC1BD",
"z. c #A6BE9E",
"x. c #99ABAB",
"c. c #8DBDAC",
"v. c #9EBBA5",
"b. c #93BCAB",
"n. c #9BBFAC",
"m. c #8AB7B7",
"M. c #8CBDB4",
"N. c #85BDBD",
"B. c #8BBDBD",
"V. c #97BAB5",
"C. c #93BDB4",
"Z. c #93BEBC",
"A. c #A2BDAB",
"S. c #A1BFB7",
"D. c #B6CB90",
"F. c #96C3AD",
"G. c #9CC2AD",
"H. c #85C2BD",
"J. c #8BC4B8",
"K. c #8BC2BE",
"L. c #94C2B4",
"P. c #9CC3B4",
"I. c #93C3BC",
"U. c #9BC4BB",
"Y. c #95C9BD",
"T. c #9BC8BB",
"R. c #A2C2AA",
"E. c #A3C7B7",
"W. c #BAD7B9",
"Q. c #BEDCBD",
"!. c #C5D8B6",
"~. c #C4DCBC",
"^. c #CCDDBD",
"/. c #D4DEB5",
"(. c #C6E1BB",
"). c #D5E2B9",
"_. c #86BEC1",
"`. c #8BBEC2",
"'. c #8DBEC9",
"]. c #92BDC2",
"[. c #9ABEC4",
"{. c #9ABFC8",
"}. c #86C2C3",
"|. c #8CC4C4",
" X c #8CC9C5",
".X c #86C5CB",
"XX c #8CC5C9",
"oX c #8DC9CA",
"OX c #92C4C4",
"+X c #9AC4C4",
"@X c #92C9C5",
"#X c #92C5C9",
"$X c #9AC6C9",
"%X c #92CACA",
"&X c #8CC6D1",
"*X c #95CBD1",
"=X c #96D1D2",
"-X c #BADCC5",
";X c #B4DCCA",
":X c #BBDECA",
">X c #ABDDD7",
",X c #BADED3",
"<X c #BCE2C4",
"1X c #B6E2C9",
"2X c #BDE2CD",
"3X c #B6E4D6",
"4X c #BBE4D4",
"5X c #BBE7DB",
"6X c #B9EAE4",
"7X c #C3DCC3",
"8X c #CADBC6",
"9X c #C2DDCD",
"0X c #C6DDD4",
"qX c #C4E3C4",
"wX c #C9E2C4",
"eX c #C3E3CC",
"rX c #C9E4CB",
"tX c #CCEAC9",
"yX c #C8E9CC",
"uX c #C5E6D5",
"iX c #D0E7D5",
/* pixels */
"/ / / _ _ _ _ _ _ / / / ] D.* 5 } } ] ) [ [ / / / ( ( * . % 0 # @ * * _ _ _ _ _ _ ( / ( / / ( ( ( / / / _ _ / / / / / / / / / / ",
"/ / _ _ [ [ ~ ~ _ _ [ 5 5 j - * * * * 9 * R / ( * * 5 b M = + $X[.V.* * * E ~ ~ _ _ _ * / 5 * $ * 5 / / / / / / / / / / / / / / ",
"/ ~ ~ ~ / ~ ~ ~ ~ * g 0 1 v e P v U v h b n b n D z Z s l F y.#XK.OX0.;.r c v v 5 * 5 l v P v <.5.2.U x * ( / ( / / / / / / / ~ ",
"/ / / / / / / ~ B b q > $XOX#XK.%XOX%Xm.@XL c I.+X$Xc J v s.H.T.`.|.|.oXr.t.B.@XZ.D +X$X|.`.s.:.s.,.s.P k x 5 R Q / / / / / / / ",
"! ! / / / _ * 2 # 1 8 {.].`.XX#XOX#X|.|.#X|.OXXX'.|.;.I 1.8X7XT.U.Z.OXOXXX,.s.,.<.t I.OX|.|.:.XXOX].OXB.N.B.k 5 v 5 A ! ! / / ! ",
"_ _ ! ( * * v 5.].].O {.OXXX}.oX}.oX|.|.XX|.|.}.}.@X$X<.$.).).b.9XyXG.C.OX:.r...t P ;.:.g.X.-.%X|.|.}.oXXXI.V.P.w.;.=.Z ! ! ! [ ",
"_ _ _ * 5 P OX`.|.].B.,... X|.#X#X|.@XOXZ.U.L.E.1XI.`.y.5.$.qX8XqXqX1Xq.-.*.,.:.<.s.-.:.9.,.,.s.K.J.G.W.!.tX8X,XI. . .P ` [ ! [ ",
"_ _ * 5 <.:.|.|.}.}.}.}.X.,.s.#X_.|.OX>X4X2XqXrXeXOXt.*.V 8.@.-Xq.w.<.,.9.a.}.%X%XXXoXXXXXN.oX,.,.<.0.O.=.8.5.;.s.,. .@.. [ [ [ ",
"/ / * >.9.a.J.@X|.K.|.J. X9.s.r.,.,.,.B.OXZ.I.J.K.$Xs.:.<.t t <.|.|.|.|.r.|.oX|.|.|.|.|.|.|.|.|.}.s.| |.}.|. XK.#X`.|.;.v ~ _ _ ",
"/ 5 R <.<.=.;XE.G.I.K.K.K.9.9.-.,.oXoX%X|.|.XX}.|.|.}.|.-.;.|._.XXN.|.|.s.| N.%X|.|.|.XX|.|.|.|.}.XX7.XX|.#X|.|.|.N.}.<.5 ~ ~ / ",
"/ * Q S I $.#.7X~.uX4XY.<.a.a.}.oX_.#X|.XXXX.X&X|.|.XXoX,.<.#XN.|.}.|.|.s.r.|.|.|.oX|.|.|.|.|.|.|.|.X.%XOX|.|.|.|.oX}.0.e ~ ~ ~ ",
"~ 5 K L g.<.5.$.uX4X$.w.<.r.*XoX%X`.|.N.K.K.|.K.|.|.oXoX9.|.OX%X#X|.|.|.|.s.r.}.|.|.|.|.|.|.|.XX$XOXOX|.|.|.}. X#X`.oXa.;.Q ~ ~ ",
"' 5 N <.}.*X.Xa. .J.OXs.,._.%XK.OXXX}.|.K.XX|.|.OXOXoX}.,.}.B.oX|.|.|.oX|.|.t.s.|.#X|.%X%X_.XX|.|.|. X}.XX}._.XX|.OX|.t.F * / / ",
"9 b C -.}.|.XXK.J.0.@X|.r._.XX#X|.|.|.XX}.`.OX|.+X%XXXXXX.|.|.N.|.oXoX|.%X|.N.,.XX#X%XoX%X|.|.|.}.XXXX XI.b.b.V.OX%XOX4.J * / ~ ",
"A N k *.|.|.OX+XI..Xr.r.s.|.|.%X|.|.|.|.I.F.<XtX1X6XH.:.s.,.|.oX|.|.|.}.#Xa.,.,.,.oX%X,.|.%X_.|.}.`.oX+X1XrX(.~.8.*.i.4.8 5 ~ ~ ",
"K K o.:.OXoXoX&X}.`.|.K.0.s.%X}.|.|.|.|.`.I.4XeX#.;.0.9.|.B.|.oX`.|.:.,.,.:.r.}.|.|.%X:.r.s.|.N.K.|.oXoXM.L.2.;.5.k L <.j.v $ ~ ",
"1 1 >.<.}.oX_.XX}.|.|.N.-.:.<.OXOXOXOX,.:.<.<.2.5.y 9.H.XX|.|.|.|.XX|.OXK.,.:.#X|.|._.,.,.<.*.5.<.*.-.:.*.<.<.P x J <.0.,.5.j ^ ",
"* , +.| s.%X#X#X|.|.H.XX|.w.P r <.:.;.:.<.<.=.:.P P ,.|.|.OXOXK.XX'.XXXX|.|.,.#X#X%X}.|.<.<.S c 5.s.y I y Z.Z.L D L OX%X9.g.d ' ",
"B B x ;.-.9.y.#X|.#XN.XX9.s.y V t L t t.>.B.B.g.v =.<.#X|.|.|.|.|.|.}.XXB.|.J. X|.|.,.X.s.<.s.:.;.%XOX|.|.OXB.B.K.g.@X<.<.S x & ",
"* H 1 8 >.|.H.K.OX|.XX#X|.%X|.<.`.OX|.m.#XOXB.#X0.*.r.7..XXX}.|.K.K.}.XXXX XoXN.#XoXXX}.oX`.OXOXXX|.B.%X|.}._.OX|. Xs.;.c h 5 % ",
"* - - 9 u.t.N.l.}.XXoX_.|.|.|.|.OX|.|.#X|.|.|.|.}. X}...XXZ.U.eXV.V.$X#X#XXX_.&X|.|.|.XX}.oX|.|.|.|.|.}.XX|.|.XX|.@X<.c c J J $ ",
"$ 6 H 8 8 {.|.|._.&XoX|.|.|.|.XX|.|.}.}.|.XX}.|.}.|.oX`.I.;X!./.wX<Xb.M.K.K. X}.|.oX|.XXXX}.|.|.XX|.XX|.#X}.}.B.`.0.k e.6.x J 5 ",
"X M B x J 1 [.+XE.].|.OXB.|.|.|.XX|.XX}.}.XXoX|.XX|.XXOX+Xb.wX!.).).!.!.Q.tX<XqXK.|.|.|.|.|.`.oX|.|.|.|.|.oX|.`.L I C v v m * / ",
"b j z v v n , 8X8X2Xc.*Xt.t.OX|.}.'.OX|.XX|.'.|.|.XX`.}.XX| I.P.C.M.U.L.L.@.2.6.|.XX|.|.|.#XoXk.|.|.#X|.|.#XOXy.*.5.C x h q o / ",
"( J N P =.=.N s n n k 9.9.K.|.}.|.|.oX|.}.|.|.OXXX|.|.oXoX X-.:.2.e c F i.>.L L 0.s.}.|.|.XXr.,.|.oX`.|.H.|.|.|.Z.+ * 0 ; ; & / ",
"/ N U v 5.=.<.<.U x N v =.I.*X'.|.|.|.|.|.|.|.}.K. X`.XX&XoX:.;.C k P *.`.OX|.|.|.|.#X#Xa.a.,.'.B.|.|.}.}.XXJ.b.6.O o x j # - / ",
"/ 5 K v >.;.X.9.h.5.N <.3XT..XXXK.|.XX|.#X#X}.}.%XI.V.E.4XV.K.V L ].@XH.H. X|.`.K._.XX|.|.s.<.i.B.oXoXB.OXK.R.9X=.t +.=.U D * / ",
"[ = M J v c 9.X.s.5.2 8.~.qXI.K.@X|.}.XX#X`.|.>X4X-XqX7XV.I.|.s.|.XX|.OX|.|.#X_. X|.XXXX|.#X*.u.].}.XXU.R.qX(.2.-.9.@.2.J H & ( ",
"/ $ 0 m z P c >.5.< 7 t.9X^.8X-XL.I.X..X}. XU.b.A.z.(.(.v.I.;.8.|.XX}.XX`.|.XXH.XX|.XX XoXt.i.8 8 V.}.4XwX/.yX;.t.t ;.6.g H + [ ",
"0 0 5 5 # D v D > i.Z.,.-.$.:X2.s.t...=XJ.J.C.uX~.)././.8XiXk :.K.K.#XN.|.|.|.H.|.%X|. X,.#X].].m D D [.9XiX,.9.z F T v j $ 5 _ ",
"$ 5 b + N 4.i.<.t.t.K.}.oX%X,.:.| -.K.B.$XU.,X:X9XeXS.b.V k P 1.I.J.P.L.c.Y.M.|.|.`.t.}.}.}.|.`.OXc J J k <.s. .S m.F T n g # ~ ",
"/ H H D >.;.9. X,.XX_.XX|.#X`.|.}.f.0.<.P l k U.K.}.|.|.0.=.=.i.Z.,XrX~.^.rXU.*.}.|.B.#X}.|.}.@X|.m.s.<.O.0.s.:.OXI.V.D # 0 * / ",
"$ 6 m J C ;.|.H.OX}.#XXX'.#XK.K. X|.<.P l uX#.J.I.OXK.I.-.C v x + , 6.1.C.;.<.|.N.|.B.K.OXB.%XB.G.G.Z.<.X.,.:.|.B.|.I.v z # # / ",
"5 $ m J Y *.B.%XXXXX_.=X#X|.I.I.3XwXA 1.uXQ W.<X5X5X5X<.S D q & + d r L B.K.%XN..XoXXXB.I.C.E.uXrX0Xc >.N.J.J.L.+Xk C l m 5 + / ",
"q @ u.3.i.I 0.<.}.-.T.F.F.yXW.qX~.8Xf > P 6.1.@.q.@.=.;.;.F J # N N >.i.s.:.-.=XY.5X;X<XqX~././.rX. # [.@XU.2XT.,Xh k l n N & ( ",
"- - z 5.-.,.V V =.<.2.1.2X-XiX7XX O 9 k @XoX|.0.g.:.:.9.0.z U n z P :.g.,.,.9.,.-.-.O.;.$.$.$.$.l g # |. X:X;X6.k =.+.1.K # o / ",
"= % H j r C k v v 3.r.t.<.;.<.<.<.v N m J..Xy.9.,.t.,.9.-.w.k x e L ;.,.9.,.9.,.<.8.,.<.,.,.,.a.<.B >.7.H.2.0.:.:.t.i.u.z 8 9 ( ",
"~ $ b x p N N x =.-.,.<.0.-.9.,.9.5.J u.s.9.,.,.;.r.,.,.<.i.D D h.r t.| ,.<.,.9.9.,.,.r.a.,.a.,.9.m =.a.<.-.,.s.:.L z T - & * _ ",
"~ $ x v 1.Z N J P 9.,.0.,.9.,.9.9.=.N 0.9.<.,.,.,.r.9.,.-.O.e.v =.<.<.X.r.<.t.9.,.r.a.,.<.,.<.<.;.v =.a.a.:.5.;.k N B b = % ( _ ",
"/ ~ b J c ;.<.5.s.s.,.,.r.r.,.,.8.0.U =.-.0.a.r.r.9.a.7.7.0.-.c 2.P ;.s.,.,.,.,.0.,.<.,.0.,.,.<.t.x Y i.7.0.2.v l B b $ $ & / / ",
"~ ~ + n v Y i.<.s.,.9.9.r.,.s.;.<.v l v i.s.,.;.<.<.9.,.s.<.:.D > J ;.-.,.9.,.,.,.<.,.,.9.9.;.5.k l l D 9.y Y v v x H J # - - ! ",
"~ ~   + x N N v D 3.t.<.,.,.9.t.I v j U.F S ;.X.,.,.-.,.9.s.*.D # j <.-.,.t.<.9.s.,.,.9.:.s.V e P 6.C c K.9.5.v k v n , - o ; _ ",
"~ / 5 $ d K n j N k <.,.a.9.9.9.9.V p I.K.B.@X,.s.:. .X.-.-.;.C 5 x c s.,.<.t.r.r.,.<.N.}.oX|.;.0.P D ].XXs.<.5.v m M = & & 0 _ ",
"_ _ _ 5 * m m N v ;.;.,.:.s.,.s.| C A P OXoX,.s.r.,.9.9.a.9.3.v $ K 3.,.,.r.<.<.,.<.r.t.,.9.,.9.-.x j h.r.t.X.,.P j 5 5 0 # - ~ ",
"( _ _ * * 5 x n 6.*.s.9.,.s.t.<.,.4.g G S r.t.s.9.,.0.9.r.t.F @ 0 # <.:.9.,.a.:.,.,.t.r.,.r.9.,.-.J & C 8.,.s.X.y V k 4.x.&.9 ( ",
"/ ~ & * * * 5 m x v <.9.,.s.:.S <.i.G # S ;.:.:.:.,.0.0.,.S T - # N <.,.9.9.r.a.9.,.<.r.a.s.,.g.2.K - U -.<.-.r.i %X<.-.*.o.@ ~ ",
"_ _ - * W b 6 2 p v S 9.9.,.t `.:.z m 1 1.Z k 0.,.9.*.y c c S.x.$ K c <.;.,.t.,.,.9.,.,.a.,.<.=.x G q %.|.s.0.:.H.:.s.=.5.O - ~ ",
"/ _ 0 & b K b T U k :.t.,.<.L `.<.x $ % X 0Xn.T.|.XXOXI.I.E.9X8X3 N z P *.i.,.,.a.,.9.,.9.,.c v j # 0 uXA.L.OX@X|.0.<.U f # - ~ ",
"~ ~ * & K x v v C 0.9.,.t.r.a.s.;.< * ; % 0X7X7X~.qXiXeXG.2X-X#.* 1. .-.`.<.r.9.7.9.s.:.,.>.D $ * 9 H X 7XP.K.oX$XP N b M % = ( ",
"~ _ < %.t.r.<.<.;.0.d.,.-.,.t.< > 3.8 9 # >.-.U.@.T.;.;.8.8.;.j.J 5.k.oXB.OXK.|. X|.9.s.r.XXOXZ.OX3.J > ;.3X;.c v v N H & # * / ",
"~ _ > ,.X.p.f.,.I.Y.XXoXK.OX}.`.C.6.1.5 @ ,.X.a.a...y.r.}.K.%Xc N :.}.B.U.:Xb.U.B.OX$X|.|.N.I.I.v.rXj u.,.-.<.5.+.v x H   * * / ",
"~ ~ b k S f.f.*.yXb.K.|.|.}.m.rX~.qXiX4 < 3.s.0.,.t.a.:.,.-.6.l j g.a.`.U.uX;X4XL.L.F.T.R.R.7XwX^.wXb 1.| ,.9.-.=.C Z B g 5 & / ",
"~ $ b N U v l A.7X-XU.1XQ.(.~.^.qX2Xa N D <.,.s.,.<.t.,.9.,.;.v v *.9.9.<.<.;.;.;.;.3X4X2X2XeX<X@.@.<.c X.9.a.,.*.v v j J g = ( ",
"~ 8 p Z j Z v D r.r.2.q.q.-.@.#.;.;.8.P 3.:.a.r.r.r.,.9.f.,.t.C D ;.9. .t.r.,.,.r.y.<.0.<.+.=.;.9.X.i.D a.a.<.a.,.<.v U   * & ~ ",
"* * M x a n l -.-.O.9.8.<.,.<.<.,.,.=.l 2.0.9.r.t.;.<.,.:.<.5.v n <.,.s.9.a.a.r.-.9.0.0.+.k V ;.<.<.5.C ;.<.<.,.<.9.P P < K # ~ ",
"$   m z n N k <.9.,.s.<.,.,.9.9.X.,.;.P c s.9.,.r.r.9.,.:.:.U j n Y r.:.-.9.,.<.,.,.s.0.V +Xm.N.r.X.;.v o.9.,.,.a.,.,.w.>.4.9 / ",
"6 + J D 1.v D ;.,.r.a.9.a.9.9.9.9.<.r P c *.,.s.r.,.,.t.<.L c j N U c <.:.a.9.,.9.,.a.,.,.|.,.<.i.s.L 5.v i.X.0.,.a.r.OX;.v @ 1 ",
"$ N x v e.<.y L ,.s.:.:.,.<.t.,.,.y =.6.c r :.s.,.9.,.r.t.g.0.k U j U P 5.;.0.<.0.-.,.,. .9.,.*.L I.H.w.k P <.9.r.,.;.j.v d & : ",
"$ M v z P e.Z.|. X..s.t.>.:.t.u #XXXB.D h *.,.<.<.9.7.r.,.X.<.k 2.w.<.-.s.-.<.t.9. .:.,. XH.K.K.|.K.;.c v 5.-.9.,.,.<.0.k v W = ",
"& g v v U v +XOX#XoX%X,.r.=X|.OXt.9.<.N N j.;.<.5.,.,.r.,.,.:.J <.9.9.9.,.9.,.9.,.:.s.|. X X}.9.X.*.5.v N 5.r t :.,.,. .0.v , [ ",
"5 5 x n x N v <.<.t.r.r.,.X.,.a.<.,.h.< N h L U >.-.a.s.,...5.8 3.u t.s.r.,.r.r.t.<.t.t.<.y.t.,.f.t.J # J v c D t :.:.,.<.v * _ ",
"( 6   j l v ;.9.<.<.r.9.a... .9.;.5.J + 5 K 4.v e <.a.:.s.,.*.O 8 D F h.t.<.s.a.r.r.r.,.,.X.,.t.<.z H & 3 x T x :.0.,.;.5.+ = ~ ",
"~ ~ w A j v -.-.r.,.,.,.,.<.<.;.5.N % 4 $ 6 + 6.+.0.0.0.5.>.< # 5 , d v 5.*.<.-.,.9.9.9.:.9.*.5.2 5 6 * 4 H m j ;.=.O.+.v , w ~ ",
"~ ~ ( ( ( * 5 9 * * * 5 * * 5 { [ [ [ [ [ ( / ^ ~ ^ ^ ~ / w w ~ ~ ~ / / ( _ 5 * 5 5 / / / / _ _ _ _ _ _ [ ( ) ^ ~ ~ ~ ~ ( / / ~ "
};
