/* XPM */
static char *da5be55829ba416ae8c460c5fa77e3566zVkbOrJO704y9rC[] = {
/* columns rows colors chars-per-pixel */
"64 64 147 2 ",
"   c #0E040C",
".  c #0F0A0C",
"X  c #180607",
"o  c #14060D",
"O  c #1B0B0A",
"+  c #1F100D",
"@  c #160711",
"#  c #160912",
"$  c #190D14",
"%  c #1E0F1D",
"&  c #151014",
"*  c #1D1315",
"=  c #161B17",
"-  c #1C1A17",
";  c #14151C",
":  c #1D141C",
">  c #151A1F",
",  c #1B191C",
"<  c #25130F",
"1  c #280D16",
"2  c #230F1B",
"3  c #2A0E1B",
"4  c #231316",
"5  c #291516",
"6  c #231913",
"7  c #23141B",
"8  c #2A121B",
"9  c #23191B",
"0  c #1F0C22",
"q  c #0E1C29",
"w  c #141122",
"e  c #1C1522",
"r  c #151A24",
"t  c #1B1922",
"y  c #1D142A",
"u  c #161A2B",
"i  c #191828",
"p  c #230E22",
"a  c #280F24",
"s  c #230F28",
"d  c #231421",
"f  c #291224",
"g  c #221B23",
"h  c #291922",
"j  c #26172E",
"k  c #281529",
"l  c #251B2B",
"z  c #321323",
"x  c #311629",
"c  c #221531",
"v  c #102226",
"b  c #362030",
"n  c #3A2335",
"m  c #3D253B",
"M  c #3F293D",
"N  c #402A3E",
"B  c #372B41",
"V  c #3D2E42",
"C  c #3F324B",
"Z  c #422D40",
"A  c #403245",
"S  c #453D4C",
"D  c #4A394B",
"F  c #544C5A",
"G  c #5C515B",
"H  c #625764",
"J  c #655A64",
"K  c #61656F",
"L  c #6C7C83",
"P  c #7B8995",
"I  c #86838A",
"U  c #88848B",
"Y  c #848E97",
"T  c #8B8D96",
"R  c #8E8E9C",
"E  c #918E94",
"W  c #988E97",
"Q  c #938E9B",
"!  c #8A9196",
"~  c #8E919D",
"^  c #919197",
"/  c #949095",
"(  c #92909B",
")  c #90959B",
"_  c #92919E",
"`  c #95919E",
"'  c #95959F",
"]  c #8E8FA1",
"[  c #928FA2",
"{  c #8D91A3",
"}  c #8E96A0",
"|  c #9190A0",
" . c #9593A0",
".. c #9195A0",
"X. c #9494A0",
"o. c #9194A5",
"O. c #9B92A2",
"+. c #9894A3",
"@. c #9B9AA8",
"#. c #A19BA2",
"$. c #A4A0A5",
"%. c #A3A7AA",
"&. c #A9A7A9",
"*. c #B0ADB0",
"=. c #B4B6B9",
"-. c #B5BABE",
";. c #BBBBBE",
":. c #A7BBC6",
">. c #AABCC6",
",. c #A7B6C9",
"<. c #ADBECD",
"1. c #B0B6C4",
"2. c #B2BBC4",
"3. c #B1BEC4",
"4. c #B3BEC5",
"5. c #B8BFC7",
"6. c #B4BEC8",
"7. c #B4BDCC",
"8. c #BABCCA",
"9. c #ADBED1",
"0. c #B3BED1",
"q. c #BABED2",
"w. c #C0BEC1",
"e. c #AEC2C5",
"r. c #A6C5CB",
"t. c #ABC3CB",
"y. c #AFC2CA",
"u. c #AFC4C9",
"i. c #ADC4CA",
"p. c #B4C1C3",
"a. c #B3C1CB",
"s. c #B4C1C9",
"d. c #B1C5CE",
"f. c #B9C0C8",
"g. c #B9C3CF",
"h. c #ADC3D3",
"j. c #ADC8D3",
"k. c #B3C3D2",
"l. c #BCC6D3",
"z. c #B0C2D8",
"x. c #B1C8D8",
"c. c #C1C3C5",
"v. c #C4CACB",
"b. c #CBC9CB",
"n. c #CBCACB",
"m. c #F4FFFF",
"M. c #FFFDFF",
/* pixels */
"m m m m b m b b m m b b b m m m m m m m m m m m m m m m m m m b m m m m m m m m m m m m m m m m m m n b b b m b b m n b m m m m ",
"m m m m b m b b m m b b b m m m m m m m m m m m m m m m m m m b m m m m m m m m m m m m m m m m m m n b b b m b b m n b m m m m ",
"m m m m m m m m m m m m m m m m m m m m m m m m m m m m m m m b m m m m m m m m m m m m m m m m m m m m m m m m m m m m m m m m ",
"m m m m m m m m m m m m m m m m m m m m m m m m m m m m m m m b m m m m m m m m m m m m m m m m m m m m m m m m m m m m m m m m ",
"m m m m m m m m m m m m m m m m m m m m m m m m m m m m m m m b m m m m m m m m m m m m m m m m m m m m m m m m m m m m m m m m ",
"m m m m m m m m m m m m m m m m m m m m m m m m m m m m m m m b m m m m m m m m m m m m m m m m m m m m m m m m m m m m m m m m ",
"m m m m m m m m m m m m m m m m m m m m m m m m m m m m m m m b m m m m m m m m m m m m m m m m m m m m m m m m m m m m m m m m ",
"m m m m m m m m m m m m m m m m m m m m m m m m m m m m m m m m m m m m m m m m m m m m m m m m m m m m m m m m m m m m m m m m ",
"m m m m m m m m m m m m m m m m m m m m m m m m m m m m m m m n n n n n n n n n n n n n n n m n m m m m m m m m m m m m m m m m ",
"m m m m m m m m m m m m m m m m m m m m m m m m m m m m m m m b b b b b b b b b b b b b b b m b m m m m m m m m m m m m m m m m ",
"m m m m m m m m m m m m m m m m m m m m m m m m m m m m m m m m m m m m m m m m m m m m m m m m m b n m m m m m m m m m m m m m ",
"m m m m m m m m m m m m m m m m m m m m m m m m m m m m m m m m m m m m m m m m m m m m m m m m m b n m m m m m m m m m m m m m ",
"m m m m m m m m m m m m m m m m m m m m m m m m m m m m m m m m m m m m m m m m m m m m m m m m m b n m m m m m m m m m m m m m ",
"m m m m m m m m m m m m m m m m m m m m m b m m m m m m m m m m m m m m m m m m m m m m m m m m m b n m m m m m m m m m m m m m ",
"m m m m m m m m m m m m m m m m m m m m m b m m m m m m m m m m m m m m m m m m m m m m m m m m m b n m m m m m m m m m m m m m ",
"m m m m m m m m m m m m m m m m m m m m m b m m m m m m m m m m m m m m m m m m m m m m m m m m m b n m m m m m m m m m m m m m ",
"m m m m m m m m m m m m m m m m m m m m m b m m m m m m m m m m m m m m m m m m # $ 7 7 * * O # m b n m m m m m m m m m m m m m ",
"m m m m m m m m m m m m m m m m m m m m m b m m m m m m m m m m m m m m m m m m $ 4 h 7 4 4 + X m b n m m m m m m m m m m m m m ",
"n m b m m m m m m m m m m b b b b b b b b b b b b b m b m m m m m m m m m m m m : 7 f 7 4 7 4 $ b b n m m m m m m m m m m b m b ",
"n m b m m m m m m m m m m b b b b b b b b b b b b b m b m m m m m m m m m m m m : t e l % d g g b b n m m m m m m m m m m b m b ",
"m m m m m m m m m m m m b m m m m m m m m m m m m m m m m m m m m m m m $ # * t f.a.6.1.X.Q R Q : :   # m m m m m m m m m m m m ",
"m m m m m m m m m m m m b m m m m m m m m m m m m m m m m m m m m m m m # * : : 3.y.d.y.o.Q ~  .; : g   m m m m m m m m m m m m ",
"m m m m m m m m m m m m b m m m m m m m m m m m m m m m m m m m m m m m @ 7 : t 3.y.i.e.} ~ ~ _ g : $ $ m m m m m m m m m m m m ",
"m m m m m m m m m m m m b m m m m m m m m m m m m m m m m m m m m m m m : : : t 5.p.3.2.~ _ _ Q t ; g 7 m m m m m m m m m m m m ",
"m m m m m m m m m m m Z * 9 * 7 7 7 * $ * * * * o o o o o o o o o o @ : E ( ^ ( : : 7 7 : : d t Q Q W W 7 7 7 * Z m m m m m m m ",
"m m m m m m m m m m m m * 7 * 7 7 7 7 4 4 4 7 4 4 4 4 4 4 4 4 4 8 7 4 7 +.) ~ ( 7 3 3 3 7 4 4 : Q Q Q W 7 7 7 * m m m m m m m m ",
"m m m m m m m m m m m Z * 7 * 7 4 7 7 7 7 7 7 7 7 7 7 7 7 7 7 7 7 7 d : _ Y T ( 7 8 1 8 4 7 7 7 Q Q Q W 7 7 7 7 M m m m m m m m ",
"m m m m m m m m m m m Z * 7 4 7 : : : 7 7 7 7 : : : : : : : : : t * ; l T } ~ ( : 7 8 4 4 4 4 7 ( _ Q W 7 7 7 7 Z m m m m m m m ",
"m m m m m m m m m m m Z * 7 7 7 Q Q Q Q Q Q Q ( ( ( ( ( ( ( ( ( ! ~ ' T @.R ~ ) M.n.n.M.* 9 7 4 ( ~ ( Q 7 7 7 7 D m m m m m m m ",
"m m m m m m m m m m m Z 7 7 7 7 ` _ ~ _ _ ~ ~ _ ~ ~ ~ ~ ~ ~ ~ ~ ) ! ~ R R R _ T c.m m &.* * 4 7 _ ~ _ Q 7 7 7 7 G m m m m m m m ",
"m m m m m m m m m m m Z 7 7 7 7 ` | Q | | Q Q | Q Q | | | | | _ ( T ..~ R Q +.X.n.m m &.* 7 7 g ~ ~ _ Q d 7 7 7 J m m m m m m m ",
"m m m m m m m m m m m Z 7 4 7 7 ` { { { o.{ { { { { { ] [ Q Q ( / / ' R o.{ { R ;.m m $.: 7 2 7 ~ ~ _ Q d 7 7 7 H m m m m m m m ",
"m m m m m m m m m m m M * 7 7 : 8.0.0.0.0.k.7.d.<.h.0.q.e d * * 6 * 7 : 6.h.h.9.&.m m I : : 7 7 _ { Q ` : 4 < * F m m m m m m m ",
"m m m m m m m m m m m M * 7 7 : 8.<.h.h.9.<.k.y.j.h.,.7.w h 4 6 6 6 4 : s.r.h.<.&.m m U * * 7 * _ ~ Q ` 7 7 5 - D m m m m m m m ",
"m m m m m m m m m m m M * 7 7 : a.r.r.h.<.a.g.3.t.r.x.0.e 7 4 5 7 7 d t p.e.p.3.&.m m E 7 4 7 : ( ( Q O.p f 4 > A m m m m m m m ",
"m m m m m m m m m m m M * 7 7 : p.r.r.:.l.8.8.3.>.t.k.7.e d 4 4 8 d d e 3.p.p.3.&.m m #.7 4 7 : ! ! ~ O.0 a 7 t V m m m m m m m ",
"m m m m m m m m m m m Z 7 4 7 7 p.i.y.l.w t t > s.i.i.Y m m m m 8 3 f e 8.6.a.3.%.m m &.7 4 4 , i.t.t.2.j f 7 : m m m m m m m m ",
"m m m m m m m m m m m Z 7 4 7 7 3.i.s.8.y e * , p.e.e.L m m m m 8 3 7 t 8.7.k.7.-.m m &.7 7 4 * e.r.r.<.y f 7 , m m m m m m m m ",
"m m m m m m m m m m m Z 7 4 7 7 6.d.7.q.e d : * ;.p.g.K m m m m 7 4 * t d.h.h.<.v.m m *.7 7 7 7 8.d.r.t.y a 4 * m m m m m m m m ",
"m m m m m m m m m m m Z 7 4 7 7 s.<.0.q.y e 7 * w.;.-.F m m m m 7 * , r 7.0.0.7.m.=.;.M.e e t t 8.8.y.t.q u : 7 m m m m m m m m ",
"m m m m m m m m m m m Z 7 4 4 : y.h.9.B m m m m * : d : m m m m m m m m t 7 7 : p.y.y.s.6.6.7.7.t t ; v L Z m m m m m m m m m m ",
"m m m m m m m m m m m Z * 7 7 ; :.x.z.B m m m m 7 7 7 7 m m m m m m m m d 1 1 h 3.t.t.t.y.y.h.7.t 7 7 ; A m m m m m m m m m m m ",
"m m m m m m m m m m m Z * 7 7 t l.,.0.V m m m m 7 4 2 7 m m m m m m m m f z 3 : a.i.r.r.r.i.h.0.0 x 3 d m m m m m m m m m m m m ",
"m m m m m m m m m m m Z & g * ; 8.q.q.C m m m m : 7 d : m m m m m m m m e d y i 6.3.3.e.y.y.6.7.u w d 7 m m m m m m m m m m m m ",
"m m m b b b b b b b b b b m m m ; e y c m m m m m m m m m m m m m m m m m m m M r 7 7 7 t t d r P S m b b b b b b b b b b m m m ",
"m m m b b b b b b b b b b m m m * 7 p s m m m m m m m m m m m m m m m m m m m m t 7 3 3 7 : 4 > S m n b b b b b b b b b b m m m ",
"m m m m m m m m m m m m m m m m - * 7 k m m m m m b b b b b b b b b b b b b b b t 7 8 8 4 - 4 , Z m m m m m m m m m m m m m m m ",
"m m m m m m m m m m m m m m m m . - 7 % m m m m m m m m m m n b m m m m m m m m , : 7 7 = = , > Z m m m m m m m m m m m m m m m ",
"m m m m m m m m m m m m m m m m m m m m m m m m m m m m m m m b m m m m m m m m b m m m Z N Z V m m m m m m m m m m m m m m m m ",
"m m m m m m m m m m m m m m m m m m m m m m m m m m m m m m m b m m m m m m m m b m m m m m m m m m m m m m m m m m m m m m m m ",
"m m m m m m m m m m m m m m m m m m m m m m m m m m m m m m m b m m m m m m m m b m m m m m m m m m m m m m m m m m m m m m m m ",
"m m m m m m m m m m m m m m m m m m m m m m m m m m m m m m m b m m m m m m m m b m m m m m m m m m m m m m m m m m m m m m m m ",
"m m m m m m m m m m m m m m m m m m m m m m m m m m m m m m m b m m m m m m m m n m m m m m m m m m m m m m m m m m m m m m m m ",
"m m m m m m m m m m m m m m m m m m m m m m m m m m m m m m m b m m m m m m m m m m m m m m m m m m m m m m m m m m m m m m m m ",
"m m m m m m m m m m m m m m m m m m m m m m m m m m m m m m m b m m m m m m m m m m m m m m m m m m m m m m m m m m m m m m m m ",
"m m m m m m m m m m m m m n n n n n n n n n n n n n n m n n m m m m m m m m m m m m m m m m m m m n n m m m m m m m m m m m m m ",
"m m m m m m m m m m m m m b b b b b b b b b b b b b b m b n m m m m m m m m m m m m m m m m m m m b n m m m m m m m m m m m m m ",
"m m m m m m m m m m m m m m m m m m m m m m m m m m m m m m m m m m m m m m m m m m m m m m m m m m m m m m m m m m m m m m m m ",
"m m m m m m m m m m m m m m m m m m m m m m m m m m m m m m m m m m m m m m m m m m m m m m m m m m m m m m m m m m m m m m m m ",
"m m m m m m m m m m m m m m m m m m m m m m m m m m m m m m m m m m m m m m m m m m m m m m m m m b n m m m m m m m m m m m m m ",
"m m m m m m m m m m m m m m m m m m m m m m m m m m m m m m m m m m m m m m m m m m m m m m m m m b n m m m m m m m m m m m m m ",
"m m m m m m m m m m m m m m m m m m m m m m m m m m m m m m m m m m m m m m m m m m m m m m m m m b n m m m m m m m m m m m m m ",
"m m m m m m m m m m m m m m m m m m m m m m m m m m m m m m m m m m m m m m m m m m m m m m m m m b n m m m m m m m m m m m m m ",
"m m m m m m m m m m m m m m m m m m m m m m m m m m m m m m m m m m m m m m m m m m m m m m m m m b n m m m m m m m m m m m m m "
};
