/* XPM */
static char *_f319e1e12894df8c873946c46034bc5NZmIC9xoJYBfe0lr[] = {
/* columns rows colors chars-per-pixel */
"64 64 7 1 ",
"  c #362030",
". c #382133",
"X c #392235",
"o c #3B2437",
"O c #3B2438",
"+ c #3D253B",
"@ c #3E263C",
/* pixels */
"@@++ +  ++   +@@+++++++++++++@+ +++++++++++@@+++++o   +  +X ++++",
"@@++ +  ++   +@@+++++++++++++@+ +++++++++++@@+++++o   +  +X ++++",
"@@++++++@+++++@@+++++++++++++@+ +++++++++++@@+++++@+++++++@+++++",
"@@@@@@@@@@@@@@@@@@@@@@@@@@@@@@+ @@@@@@@@@@@@@@@@@@@@@@@@@@@@@@@@",
"@@++++++@+++++@@+++++++++++++@+ +++++++++++@@+++++@+++++++@+++++",
"@@++++++@+++++@@+++++++++++++@+ +++++++++++@@+++++@+++++++@+++++",
"@@++++++@+++++@@+++++++++++++@+ +++++++++++@@+++++@+++++++@+++++",
"@@++++++@+++++@@+++++++++++++@@++++++++++++@@+++++@+++++++@+++++",
"@@@@@@@@@@@@@@@@@@@@@@@@@@@@@@+ooooooooooooooo@o@@@@@@@@@@@@@@@@",
"@@++++++@+++++@@+++++++++++++@+               + ++@+++++++@+++++",
"@@++++++@+++++@@+++++++++++++@@++++++++++++@@++++ X+++++++@+++++",
"@@@@@@@@@@@@@@@@@@@@@@@@@@@@@@@@@@@@@@@@@@@@@@@@@ X@@@@@@@@@@@@@",
"@@++++++@+++++@@+++++++++++++@@++++++++++++@@++++ X+++++++@+++++",
"@@++++++@+++++@@+++++ +++++++@@++++++++++++@@++++ X+++++++@+++++",
"@@++++++@+++++@@+++++ +++++++@@++++++++++++@@++++ X+++++++@+++++",
"@@++++++@+++++@@+++++ +++++++@@++++++++++++@@++++ X+++++++@+++++",
"@@@@@@@@@@@@@@@@@@@@@ @@@@@@@@@@@@@@@@@@@@@@@@@@@ X@@@@@@@@@@@@@",
"@@++++++@+++++@@+++++ +++++++@@++++++++++++@@++++ X+++++++@+++++",
"o+ +++++@++++             + +@@++++++++++++.      X+++++++@++ + ",
"o+ +++++@++++             + +@@++++++++++++.      X+++++++@++ + ",
"@@++++++@+++ +@@+++++++++++++@@++++++++++++@@+++++@+++++++@+++++",
"@@++++++@+++ +@@+++++++++++++@@++++++++++++@@+++++@+++++++@+++++",
"@@++++++@+++ +@@+++++++++++++@@++++++++++++@@+++++@+++++++@+++++",
"@@++++++@+++ +@@+++++++++++++@@++++++++++++@@+++++@+++++++@+++++",
"@@@@@@@@@@@@ @@@@@@@@o@@@@@@@@@@@@@@@@@@@@@@@@@@@@@@@@@@@@@@@@@@",
"@@++++++@+++ +@@+++++ +++++++@@++++++++++++@@+++++@+++++++@+++++",
"@@++++++@+++ +@@+++++ +++++++@@++++++++++++@@+++++@+++++++@+++++",
"@@++++++@+++ +@@+++++ +++++++@@++++++++++++@@+++++@+++++++@+++++",
"@@++++++@+++++@@+++++ +++++++@@++++++++++++@@+++++@+++++++@+++++",
"@@@@@@@@@@@@+@@@@@@@@ ++++++++++@@@@@@@@@@@@@@@@@@@@@@@@@@@@@@@@",
"@@++++++@+++ +@@+++++           +++++++++++@@+++++@+++++++@+++++",
"@@++++++@+++++@@+++++ +++++++@+ +++++++++++@@+++++@+++++++@+++++",
"@@++++++@+++++@@+++++ +++++++@+ +++++++++++@@+++++@+++++++@+++++",
"@@++++++@+++++@@+++++ +++++++@+ +++++++++++@@+++++@+++++++@+++++",
"@@++++++@+++++@@+++++ +++++++@@++++++++++++@@+++++@+++++++@+++++",
"@@++++++@+++++@@+++++ +++++++@@++++++++++++@@+++++@+++++++@+++++",
"@@++++++@+++++@@+++++++++++++@@++++++++++++@@+++++@+++++++@+++++",
"@@@@@@@@@@@@@@@@@@@@@@@@@@@@@@@@@@@@@@@@@@@@@@@@@@@@@@@@@@@@@@@@",
"@@++++++@+++++@@+++++++++++++@@++++++++++++@@+++++@+++++++@+++++",
"@@@@@@@@@@@@.@@+@@@@@@@@@@@@@@@@@@@@@@@@@@@@@@@@@@@@@@@@@@@@@@@@",
"@@++++++@+++ +@@+++++++++++++@@++++++++++++@@+++++@+++++++@+++++",
"@@++++++@+++ +@@+++++++++++++@@++++++++++++@@+++++o ++++++@+++++",
"@@++++++@+++ +@@+++++++++++++@@++++++++++++@@+++++o ++++++@+++++",
"@@++++++@+++ +@@+++++++++++++@@++++++++++++@@+++++o ++++++@+++++",
"@@+          +@@+++++++++++++@@++++++++++++@@+++++o          +++",
"@@+          +@@+++++++++++++@@++++++++++++@@+++++o          +++",
"@@++++++@+++++@@+++++++++                   X+ +++@+++++++@+++++",
"@@@@@@@@@@@@@@@+@@@@@@@@@+++++O ++++++++ ++++@+@@@@@@@@@@@@@@@@@",
"@@++++++@+++++@@+++++++++++++@+ ++++++++ ++@@+++++@+++++++@+++++",
"@@++++++@+++++@@+++++++++++++@+ ++++++++ ++@@+++++@+++++++@+++++",
"@@++++++@+++++@@+++++++++++++@+ ++++++++ ++@@+++++@+++++++@+++++",
"@@++++++@+++++@@+++++++++++++@+ ++++++++ ++@@+++++@+++++++@+++++",
"@@@@@@@@@@@@@@@@@@@@@@@@@@@@@@+ @@@@@@@@o@@@@@@@@@@@@@@@@@@@@@@@",
"@@++++++@+++++@@+++++++++++++@+ +++++++++++@@+++++@+++++++@+++++",
"@@++++++@+++++@@+++++++++++++@+ +++++++++++@@+++++@+++++++@+++++",
"@@@@@@@@@@@@@..............@.O++@@@@@@@@@@@@@@@@@.X@@@@@@@@@@@@@",
"@@++++++@++++              + o@++++++++++++@@++++ X+++++++@+++++",
"@@++++++@+++++@@+++++++++++++@@++++++++++++@@+++++@+++++++@+++++",
"@@++++++@+++++@@+++++++++++++@@++++++++++++@@+++++@+++++++@+++++",
"@@++++++@+++++@@+++++++++++++@@++++++++++++@@++++ X+++++++@+++++",
"@@@@@@@@@@@@@@@@@@@@@@@@@@@@@@@@@@@@@@@@@@@@@@@@@ X@@@@@@@@@@@@@",
"@@++++++@+++++@@+++++++++++++@@++++++++++++@@++++ X+++++++@+++++",
"@@++++++@+++++@@+++++++++++++@@++++++++++++@@++++ X+++++++@+++++",
"@@++++++@+++++@@+++++++++++++@@++++++++++++@@++++ X+++++++@+++++"
};
