/* XPM */
static char *_1b7292d23464e1ede26f5595eef74b5XhyQOeqmWfTq1BWo[] = {
/* columns rows colors chars-per-pixel */
"64 64 204 2 ",
"   c #1C0B06",
".  c #16080A",
"X  c #1C0D0D",
"o  c #1E130D",
"O  c #1C180F",
"+  c #150612",
"@  c #160C14",
"#  c #1A0E13",
"$  c #1C0F19",
"%  c #171115",
"&  c #1D1315",
"*  c #1F1914",
"=  c #161219",
"-  c #1D131A",
";  c #1C191C",
":  c #280F03",
">  c #230F0C",
",  c #2C0E0B",
"<  c #350D05",
"1  c #380C00",
"2  c #320D0C",
"3  c #251203",
"4  c #2C1306",
"5  c #25130D",
"6  c #2A130D",
"7  c #23180E",
"8  c #2B190E",
"9  c #321206",
"0  c #32110C",
"q  c #3B1309",
"w  c #230E14",
"e  c #290F15",
"r  c #240F1A",
"t  c #290F1B",
"y  c #241314",
"u  c #291413",
"i  c #231915",
"p  c #2B1A14",
"a  c #23141B",
"s  c #29141C",
"d  c #24191C",
"f  c #2B191B",
"g  c #331413",
"h  c #301B16",
"j  c #161723",
"k  c #1D1522",
"l  c #1E1923",
"z  c #240F22",
"x  c #241421",
"c  c #291521",
"v  c #231922",
"b  c #291A22",
"n  c #231B2B",
"m  c #362030",
"M  c #392235",
"N  c #3D253B",
"B  c #533A3E",
"V  c #59413F",
"C  c #432E41",
"Z  c #4F3540",
"A  c #553B42",
"S  c #593C44",
"D  c #54374E",
"F  c #543A4C",
"G  c #5A3C4A",
"H  c #533453",
"J  c #553A54",
"K  c #5A3C52",
"L  c #563A59",
"P  c #593A59",
"I  c #7B5A4D",
"U  c #624450",
"Y  c #765B54",
"T  c #7D5D51",
"R  c #786056",
"E  c #766160",
"W  c #7F7166",
"Q  c #8D573E",
"!  c #94553C",
"~  c #835645",
"^  c #815846",
"/  c #8C5A45",
"(  c #845C4C",
")  c #8B5D4C",
"_  c #925640",
"`  c #935B44",
"'  c #915F48",
"]  c #845E52",
"[  c #885E50",
"{  c #836F4C",
"}  c #87744F",
"|  c #8D704E",
" . c #826255",
".. c #836F56",
"X. c #8C6F55",
"o. c #836E5C",
"O. c #8B6F5C",
"+. c #867255",
"@. c #8A7354",
"#. c #8C7854",
"$. c #85725C",
"%. c #8A725B",
"&. c #8E795C",
"*. c #B46F4E",
"=. c #BE6F48",
"-. c #BF7147",
";. c #B7724B",
":. c #BE734D",
">. c #AE6F53",
",. c #B36E54",
"<. c #BB6F55",
"1. c #AE7355",
"2. c #A6755C",
"3. c #AC755B",
"4. c #B57453",
"5. c #BD7753",
"6. c #B4745B",
"7. c #BA755A",
"8. c #846E63",
"9. c #8B6F63",
"0. c #826F68",
"q. c #847263",
"w. c #8A7363",
"e. c #877864",
"r. c #8D7961",
"t. c #85736A",
"y. c #8A7769",
"u. c #887868",
"i. c #A47560",
"p. c #AC7665",
"a. c #AD7A64",
"s. c #AF7768",
"d. c #A77B6A",
"f. c #B47462",
"g. c #C16E50",
"h. c #C27653",
"j. c #CA7151",
"k. c #A4937B",
"l. c #AA957C",
"z. c #AD9B7C",
"x. c #B19C7E",
"c. c #8C8C95",
"v. c #8D8D9C",
"b. c #948D96",
"n. c #988E97",
"m. c #948E9C",
"M. c #998E9B",
"N. c #8D929D",
"B. c #959097",
"V. c #92919B",
"C. c #99939B",
"Z. c #A69585",
"A. c #AB9585",
"S. c #AE9C84",
"D. c #A5938A",
"F. c #AB9489",
"G. c #AD9B8B",
"H. c #AE9D89",
"J. c #AE9D8D",
"K. c #B29D81",
"L. c #B59D81",
"P. c #B19A84",
"I. c #B29E85",
"U. c #B59D85",
"Y. c #B19A89",
"T. c #B69B8A",
"R. c #B29C8C",
"E. c #AA9791",
"W. c #AD9C92",
"Q. c #B09790",
"!. c #B39C93",
"~. c #B99E95",
"^. c #AEA18E",
"/. c #B3A184",
"(. c #B3A18B",
"). c #BBA08B",
"_. c #AEA095",
"`. c #B4A191",
"'. c #968EA3",
"]. c #8793A1",
"[. c #8B94A3",
"{. c #9493A3",
"}. c #9993A4",
"|. c #BFB8B7",
" X c #CBBAB7",
".X c #C3BCBB",
"XX c #A7BECE",
"oX c #AEBECB",
"OX c #B2B4C3",
"+X c #B5BCC3",
"@X c #BABCC3",
"#X c #B4BDCC",
"$X c #B9BDC9",
"%X c #ADBED1",
"&X c #B9BFD5",
"*X c #A7C3CF",
"=X c #AEC1CC",
"-X c #B0C2C6",
";X c #B3C1CC",
":X c #BCC2CB",
">X c #AEC3D0",
",X c #B3C2D3",
"<X c #BBC4D3",
"1X c #C4C3C8",
/* pixels */
"N N N N m N m m N N m m m N N N N N N N o 7 y a a a a a x a y i a a x a y & o O N N N N N N N N N N M m m m N m m N M m N N N N ",
"N N N N m N m m N N m m m N N N N N N N i o y a a a a a x a y i y a r a y y i * N N N N N N N N N N M m m m N m m N M m N N N N ",
"N N N N N N N N N N N N N N N N N N N N X o a a a a y y s s i y u y s s y i y y N N N N N N N N N N N N N N N N N N N N N N N N ",
"N N N N N N N N N N N N N N N N N N N N X 5 y u i y 5 5 u u 5 6 5 5 u f > 5 y i N N N N N N N N N N N N N N N N N N N N N N N N ",
"N N N N N N N N N N N N N N N N # # X . q.q.q.q.J.H.S.S.J.J.H.S.I.I.Y.A.y.q.q.0.i y & & N N N N N N N N N N N N N N N N N N N N ",
"N N N N N N N N N N N N N N N N # i 5   e.$.$.%.I.K.K.S.I.S.S.K.z.x.I.S.w.$.%.w.6 y o & N N N N N N N N N N N N N N N N N N N N ",
"N N N N N N N N N N N N N N N N w y u 8 o.$.$.+.K.K.x.S.S.S.S.S.K./.U.P.%.O.%.w.6 5 p y N N N N N N N N N N N N N N N N N N N N ",
"N N N N N N N N N N N N N N N N   5 8 : w.$.%.%.K.K.K.K.S.S.S.S.S.I.I.P.%.O.%.%.4 3 5 y N N N N N N N N N N N N N N N N N N N N ",
"N N N N N N N N N N N N @ + + . t.o.w.o.U.L.U.x.L.K.K.K.S.S.S.S.H.S.I.(.L.I.U.L.%.%.q.q.i a - ; N N N N N N N N N N N N N N N N ",
"N N N N N N N N N N N N & & & y q.+.+.%.L.U.U.x.L.L.I.I.I.I.R.H.H.S.S.S.I.I.L.L.@.@.$.y.5 y a - N N N N N N N N N N N N N N N N ",
"N N N N N N N N N N N N & a a y $.{ #.@.U.P.).U.U.U.Y.R.S.S.H.G.S.(./.S.I.S.L.L.@.@...q.5 f a a N m M N N N N N N N N N N N N N ",
"N N N N N N N N N N N N & a a 5 $.#.@.+.T.!.F.Q.R.!.!.~.F.J.W.!.J.S.S.(.S.`.!.Y.$.%.w.o.u w y a N m M N N N N N N N N N N N N N ",
"N N N N N N N N N N N N a a a 5 R.l.U.T.S S U S G G F Z f u y y W.(.`.J.V B A S u 5 > p e b s a N m M N N N N N N N N N N N N N ",
"N N N N N N N N N N N N & a a y R.(.P.Q.G K D D K J L D c y a u !.S.A.~.A K K F r s s y a r a a N m M N N N N N N N N N N N N N ",
"N N N N N N N N N N N N & y a 5 H.S.(.Q.K H P P J P P H s y y y U.L.U.~.A J P J x a a a c x a y N m M N N N N N N N N N N N N N ",
"N N N N N N N N N N N N & a s u H.S.S.!.F K P J J J J F s y y y P.L.L.R.S F J P x a a a a a y & N m M N N N N N N N N N N N N N ",
"N N N N N N N N N N N N a a s y H./.S.G.u a z x x a a a a y y 6 R.I.S.R.5 s a x x x x a x a a i N m M N N N N N N N N N N N N N ",
"N N N N N N N N N N N N $ a s u G.S.S.H.5 i a x a a a a a a y 5 G.S.`.G.p 5 y a c a a x & a y & N m M N N N N N N N N N N N N N ",
"M N m N N N N N N N N N & & a y H.I.(.J.u y y a i i i a a a c u G./.S.G.6 y > y y X i y y y a a m m M N N N N N N N N N N m N m ",
"M N m N N N N N N N N N ; d a y !.R.J.W.6 u 6 5 y y y y y y a u I.z.I.T.6 6 h u 6 p 5 5 u a w a m m M N N N N N N N N N N m N m ",
"N N N N N N N N N N N N m N N N y u u 6 w...+.$.H.W.J.J.S.S.H.H.z./.L.A.R.R.F.J.G.Z.H.J.3 y s a N N N N N N N N N N N N N N N N ",
"N N N N N N N N N N N N m N N N a t e 6 $.@.} +.I.R.R.S.K.z.S.K.x.z.U.U.Y.R.`.R.I.(.S.H.8 u w a N N N N N N N N N N N N N N N N ",
"N N N N N N N N N N N N m N N N c t s 5 w.+.+.+.I.R.R.R.I.I.I.I.I.I.S.T.S.T.S.S.S.S.(.G.p y a a N N N N N N N N N N N N N N N N ",
"N N N N N N N N N N N N m N N N a r s u t.$.%.%.U.T.Y.Y.I.I.I.I.G.J.`.G.R.S.I.S.I.(.H.W.y a $ - N N N N N N N N N N N N N N N N ",
"N N N N N N N N ; ; - ; ; ; a a y i y i u u 6 4 %.%.@.@.L.I.R.J.5 5 u 3 H.S.I.S.3 8 3 i C N N N N N N N N N N N @ @ & # d & y a ",
"N N N N N N N N a a ; a a a a a y & y a a t s 6 %.@.@.@.K.I.I.R.u i 5 8 G.(.S.G.8 3 y & N N N N N N N N N N N N ; & & d & f s e ",
"N N N N N N N N a a a a a a a a ; % & a a x c > w.+.} @.z.S.z.S.a $ i y J.H.`.W.5 i - b N N N N N N N N N N N N - d d & a y e f ",
"N N N N N N N N a a a a a x x x ; ; ; % b a a u 8.$.%.r.Z.S.S.J.a b y 5 W.J.D.E.y a v - N N N N N N N N N N N N a a ; a a a t s ",
"N N N N - - - v n.b.B.m.m.m.m.m.$X$X@X1X@ a a a s u e w f i 5 y a $ a i y 5 p y f a $ ; N N N N N N N N + x - $ b.b.b.n.a a a s ",
"N N N N d & - v b.B.V.V.V.V.V.N.#X;X:X@X; - & a a s s a s a a a a x a y y i > y w a a ; N N N N N N N N $ $ $ v C.B.b.C.- d a w ",
"N N N N - b a - b.b.V.N.N.N.N.N.#X,X#X$X; ; & i a s a a y y y a a a s y s w s s s f a & N N N N N N N N b b a $ b.B.V.c.l ; - a ",
"N N N N a # a a B.V.V.N.N.].].].;X=X,X#X- 5 6 6 , 2 2 0 y y a a i y 5 y a c t y 6 8 > i N N N N N N N N a - x k V.N.c.V.= v a a ",
"N N N N & y i a B.V.N.N.oX=X=X=X=X;X*X$XR ) ( ) s.f.<.f.6 a y y E.D.k.G.e c x y O.@.%.w.5 y & & u y & ; b.m.}.N.;X#X;X:X- a a y ",
"N N N N y y y a b.b.N.].oX>X>X=X=X=X*X:XI / / _ ,.<.j.,.g & a f D.A.z.k.f a r u %.| X.w.y a i y y a a ; b.v.[.[.oX=X#XOXv a y a ",
"N N N N y y a a M.m.V.{.#X;X;X#X,X%XXX:XY ) / ! 7.h.g.6.0 a $ a W.A.l.S.5 x a y q.+.$.w.y a a & a a - = }.}.[.[.;X;X;X:X= a y u ",
"N N N N y a a a b.m.m.}.OX$X$X#X#X&X<X@XE I ^ / 3.>.7.6.1 , g , F.D.Z.Z.y i a i $.+.$.y.w a a a v l l n v.[.[.].#X:X+XOX; d y y ",
"N N N N & a a a x x k k n l k ; x - = v & f 8 4 ( ' _ ! 7.6.,.p.g a y i y y i 5 R./.x.Z.f c a - b.m.m.v.<X;X;X;Xj k l ; N N N N ",
"N N N N & a a a a a a - a a a a a s s y a - 5 6 I ~ / ! :.=.j.6., ; a & i 5 y u P.K.K.P.u s y a M.'.{.{.oX=X=X;Xj x a @ N N N N ",
"N N N N - a a a x x a a y y 5 u s s u y d a y 6  .( ~ ` *.:.:.>.g a - f o u u 5 H.I.I.Y.u e 5 y M.m.m.v.;X;X-X+Xl x a a N N N N ",
"N N N N - - a - a a y u 6 6 6 6 u a y u y i 6 4 T I ] ^ a.3.a.d.< 2 0 , u w y i W.J.J.J.6 u 5 y n.}.m.c.:X+X+X@X; v & # N N N N ",
"N N N N N N N N - y u u 8.w.w.8.i a i y t.t.9.9.: 4 6 5  X.X|. Xa.6.3.d., s a - - & y 5 W.W.J.W.- k k ; $ a a - N N N N N N N N ",
"N N N N N N N N & y y > w.%.%.w.y y i 5 w.O.9.9.6 6 y % :X#X=X.X3.:.4.a.2 s x k ; d y y _.J.H.W.& - - a a f s # N N N N N N N N ",
"N N N N N N N N a i p 5 y.o.$.w.6 5 i 5 w.O.9.t.5 y y ; $X%X=X.X3.-.;.3.2 t x x y u > 6 J.^.H.J.y y i a s e u X N N N N N N N N ",
"N N N N N N N N y & > p 8.w.$.o.5 5 i 5 %.X.%.w.p 5 5 * +X;X;X|.a.5.4.3.g s x r 0 q q 9 R.G.G.!.y y & y w u y y N N N N N N N N ",
"N N N m m m m m & a f y p > 3 7 y y a 5 %.@.@.%.A.R.I.G.d ; - p ^ Q Q ) , a a g p.1.1.i.4 8 5 5 u u y $ m m m m m m m m m N N N ",
"N N N m m m m m a y w a w u i y a a a 5 %.@.@.@.U.U.I.G.i a y 6 ] ) / [ 5 a y , 6.:.h.3.0 5 y y y s y & m m m m m m m m m N N N ",
"N N N N N N N N - a c s r a a - a a a 5 $.+.@.@.K.S.S.W.y a y 6 ( / / ( 5 i y 6 4.-.-.6.2 a a a y d s & N N N N N N N N N N N N ",
"N N N N N N N N # a a $ x x - $ x a a 5 $.+.+.+.R.H.W.W.i a s u T ( ( ] y & - 6 2.4.1.i.u a a a a - # - N N N N N N N N N N N N ",
"N N N N N N N N N N N N N N N N $ $ s 6 $.+.@.+.6 u y i y s y y u 6 u e a - - # m N N N N N N N N N N N N N N N N N N N N N N N ",
"N N N N N N N N N N N N N N N N a a s 5 q.+.@.$.5 u s a i > y a i i y a r b a & m N N N N N N N N N N N N N N N N N N N N N N N ",
"N N N N N N N N N N N N N N N N y i y 5 $.$.$.q.5 y a a a a a y 5 > i y y a d - m N N N N N N N N N N N N N N N N N N N N N N N ",
"N N N N N N N N N N N N N N N N X 5 p 5 t.q.q.t.y y a & a y a i 5 p u y u a & a m N N N N N N N N N N N N N N N N N N N N N N N ",
"N N N N N N N N N N N N a a & y E.J.J.J.5 u y o N N N N $ a a y G.Z.J.W.5 y d & M N N N N N N N N N N N N N N N N N N N N N N N ",
"N N N N N N N N N N N N a & & y J.R.(.G.5 5 a a N N N N # $ a i R.(.R.J.u i & & N N N N N N N N N N N N N N N N N N N N N N N N ",
"N N N N N N N N N N N N a a y u Y.U.I.S.5 y a a N N N N - x b y S.K.(.F.u 5 y a N N N N N N N N N N N N N N N N N N N N N N N N ",
"N N N N N N N N N N N N a a y u P.L.K.S.6 s a - M M M N - - a 5 P.L.P.R.5 u y y N N N N N N N N N M M N N N N N N N N N N N N N ",
"N N N N N N N N N N N N a a y y $.@.+.$.u a - x m m m N - - a y o.&...o.6 u X a N N N N N N N N N m M N N N N N N N N N N N N N ",
"N N N N N N N N N N N N a a a u %.@.%.y.5 a a a N N N N - - a y $.+.r.q.6 y f a N N N N N N N N N N N N N N N N N N N N N N N N ",
"N N N N N N N N N N N N a & a y $.....w.5 i a & N N N N - & a y q.$.q.8.p > & a N N N N N N N N N N N N N N N N N N N N N N N N ",
"N N N N N N N N N N N N - d a & q.e.u.W p & & ; N N N N & d a y q.q.t.t.o i i - N N N N N N N N N m M N N N N N N N N N N N N N ",
"N N N N N N N N N N N N N N N N N N N N N N N N N N N N N N N N N N N N N N N N N N N N N N N N N m M N N N N N N N N N N N N N ",
"N N N N N N N N N N N N N N N N N N N N N N N N N N N N N N N N N N N N N N N N N N N N N N N N N m M N N N N N N N N N N N N N ",
"N N N N N N N N N N N N N N N N N N N N N N N N N N N N N N N N N N N N N N N N N N N N N N N N N m M N N N N N N N N N N N N N ",
"N N N N N N N N N N N N N N N N N N N N N N N N N N N N N N N N N N N N N N N N N N N N N N N N N m M N N N N N N N N N N N N N "
};
