/* XPM */
static char *baaf314d21624c34bc7c0357629385afUy1mUsK8EJSoV7kv[] = {
/* columns rows colors chars-per-pixel */
"64 64 12 1 ",
"  c #2E102C",
". c #2E1C34",
"X c #311D33",
"o c #3E263C",
"O c #362838",
"+ c #482745",
"@ c #4B3A49",
"# c #3A475F",
"$ c #3A4A68",
"% c #877385",
"& c #7899AE",
"* c #A397A2",
/* pixels */
"********&%******&%******&%****&%****&%******&%*****&%******&%***",
"********&%******&%******&%****&%****&%******&%*****&%*****&&%***",
"********&%******&%******&%****&%****&%******&%*****&%******&%***",
"&&&&&&&&*%&&&&&&*%&&&&&&*%&&&&*%&&&&*%&&&&&&*%&&&&&*%&&&&&&&%&&&",
"**&&&@@@@@@@@@@@@@@@@@@@@@@@@@@@@@@@@@@@@@*@@@@@@&&@@@@@@@&@%%%%",
"*****$@$$$$$$$$@$$$$$$$@$$$$$@#$$$$$@$$$$@@@$$$$@@@@$$$$$@@$%***",
"****%$@$####$$$@$$###$$@$$$$$@#$##$$@$#$$$$@$#$$$@@$$$#$##@$%***",
"***%%$@$$$$##$$@$$$$##$@$$$$$@$$#$$#@$$##$$@$$$##$@$###$$$@#%**%",
"***%$$@@@@@@@@@@@@@@@@@@@@@@@@@@@@@@@@@@@@@@@@@@@@@@@@@@@@@@%**%",
"%%%*@@@$$$$@$$$$$#$$@$$$$$###$$$@$$$$#$$@$#$$$$@$###$$$#$@$$%%%*",
"**%*$@$$##$@$#$#$$$$@$#########$@$#$#$$$@$$$##$@$$$$$$##$@$#%*%*",
"***%@@@@@@@@@@@@@@@@@@@@@@@@@@@@@@@@@@@@@@@@@@@@@@@@@@@@@@@@%**%",
"***%$##$@$$$$$@$#$$$$$$$@$$$$@$$$$$#$$@$$$$$$@$$$$$$$$@$###$%**%",
"**%*$#$$@$###$@$$#$#####@$$##@$$$$$$$$@$###$$@$####$$$@$#$$$%*%*",
"%%%*$###@$$#$$@$#$$#$$$#@#$$$@$####$$$@$#$$$$@$$$$###$@$$##$%%%*",
"***%@@#@@@@@$@@@@@$@@@@@@$@@@@@@@@@@@@@@@#@@@@@@$@@@@@@@$@@@%**%",
"***%$@@$$$$@@$$$$@@$$$$$@@$$$$@$$$$@#$$$$@$$$$$#@$#$$$$@@$$$%**%",
"***%##@$##$@$###$$@###$$@$##$$@$###@$$##$@$###$#@####$$@##$$%**%",
"**%*@@@@@@@@@@@@@@@@@@@@@@@@@@@@@@@@@@@@@@@@@@@@@@@@@@@@@@@@%*%*",
"%%%*XXXXXXXXXXXXXXXXXXXXXXXXXXXXXXXXXXXXXXXXXXXXXXXXX..XXXX.%%%*",
"**%*         OXO     O     X              OOX       XXXX   X%*%*",
"***%          X      O     X               OO              X%**%",
"***%          X     O      X                X              X%**%",
"**%*          X            X                X              X%*%*",
"%%%*          X            X                X              X%%%*",
"**%%          X            X                X              X%*%%",
"***%          X            X                X              X%**%",
"***%          X            X                X              X%**%",
"**%*    ooooooXooooooooooooXooooooooooooooooXooooooooooooooX%*%*",
"%%**   oooooooXooooooooooooXooooooooooooooooXooooooooooooooX%%**",
"**%%   oooooooXooooooooooooXooooooooooooooooXooooooooooooo+X%*%%",
"***%   oooooo+X+oooooooooo+X+oooooooooXXXXX+X+oooooooooooo+X%**%",
"***%XXXXXXXXXXXXXXXXXXXXXXXXXXXXXXXXXXXooooXXXXXXXXXXXXXXXXX%**%",
"%%%%   oooooo+++oooooooooo+X+oooooooooooooo+X+oooooooooooo+X%%%%",
"***%   oooooooXooooooooooooXooooooooooooooooXooooooooooooooX%**%",
"**%%   oooooooXooooooooooooXooooooooooooooooXooooooooooooooX%*%%",
"***%   oooooooXooooooooooooXooooooooooooooooXooooooooooooooX%**%",
"%%%*   oooooooXooooooooooooXooooooooooooooooXooooooooooooooX%%%*",
"%%*%   oooooooXooooooooooooXooooooooooooooooXooooooooooooooX%%*%",
"***%   oooooooXooooooooooooXooooooooooooooooXooooooooooooooX%**%",
"***%   oooooooXooooooooooooXooooooooooooooooXooooooooooooooX%**%",
"%%%*   oooooooXooooooooooooXooooooooooooooooXooooooooooooooX%%%*",
"***%   oooooooXooooooooooo+X+oooooooooooooo+X+oooooooooooo+X%**%",
"***%XXXXXXXXXXXXXXXXXXXXXXXXXXXXXXXXXXXXoooXXXXXXXXXXXXXXXXX%%%%",
"%%%%   oooooo+++oooooooooo+X+oooooooooooXXX+X+oooooooooooo+X%**%",
"****   oooooooXooooooooooooXooooooooooooooooXooooooooooooooX%*%%",
"****   oooooooXooooooooooooXooooooooooooooooXooooooooooooooX%**%",
"%%%%   oooooooXooooooooooooXooooooooooooooooXooooooooooooooX%%%*",
"***%   oooooooXooooooooooooXooooooooooooooooXooooooooooooooX%%*%",
"**%%   oooooooXooooooooooooXooooooooooooooooXooooooooooooooX%**%",
"***%   oooooooXooooooooooooXooooooooooooooooXooooooooooooooX%**%",
"%%%*   oooooooXooooooooooooXooooooooooooooooXooooooooooooooX%%%*",
"%%*%   oooooooXooooooooooooXooooooooooooooooXooooooooooooooX%**%",
"***%   oooooooXooooooooooo+X+oooooooooooooo+X+oooooooooooo+X%**%",
"***%XXXXXXXXXXXXXXXXXXXXXXXXXXXXXXXXXXXXXXXXXXXXXXXXXXXXXXXX%%%%",
"%%%*   oooooooXooooooooooooXooooooooooooooooXooooooooooooooX%***",
"***%   oooooooXooooooooooooXooooooooooooooooXooooooooooooooX%***",
"***%   oooooooXooooooooooooXooooooooooooooooXooooooooooooooX%***",
"%%%%%%%%o%%%%%%%%%%%%%%%%%%%%%%%%%%%%%%%%%%%%%%%%%%%%%%%%o%%%&&&",
"********&%******&%******&%****&%****&%******&%*****&%****%%&%***",
"********&%******&%******&%****&%****&%******&%*****&%*****&&%***",
"********&%******&%******&%****&%****&%******&%*****&%******&%***",
"&&&&&&&&*%%%%%%&*%&&&&&&*%&&&&*%&&&&*%&&&&&&*%&&&&&*%&&&&&&&%&&&",
"%%%%%%%%%%%%%%%%%%%%%%%%%%%%%%%%%%%%%%%%%%%%%%%%%&%%%%%%%%%%%%%%"
};
